<?xml version="1.0" encoding="UTF-8"?>
<svg version="1.1" xmlns="http://www.w3.org/2000/svg" width="320" height="120">
<path d="M0 0 C5.94 0 11.88 0 18 0 C18.495 1.134375 18.99 2.26875 19.5 3.4375 C19.86738281 4.25476563 20.23476563 5.07203125 20.61328125 5.9140625 C21.35894112 7.57341827 22.10208486 9.233972 22.82958984 10.90136719 C27.24241175 20.98986735 32.04600521 29.40666043 39 38 C40.69742512 40.31323517 42.34743262 42.65442049 44 45 C41.69 49.62 39.38 54.24 37 59 C27.66547477 59.12614223 27.66547477 59.12614223 24.3828125 58.50390625 C19.42274624 57.76505111 14.50727678 57.85600906 9.5 57.875 C8.48035156 57.87113281 7.46070312 57.86726563 6.41015625 57.86328125 C1.48696563 57.86968332 -3.15982642 58.00134973 -8 59 C-11.53768566 59.62017355 -14.50570384 59.97252255 -18 59 C-21.8538854 55.13088185 -23.58949487 50.67134231 -24.875 45.4375 C-23.73300555 40.95109325 -21.44784863 38.86471474 -18.2890625 35.56640625 C-9.33630259 25.52892629 -4.19915758 12.59747275 0 0 Z M14 11 C12.09091621 12.97532959 10.22480496 14.97024104 8.375 17 C7.82739014 17.59723877 7.27978027 18.19447754 6.71557617 18.80981445 C3.33875218 22.50257519 0.00432325 26.22766514 -3.265625 30.015625 C-6.2155838 33.39080309 -9.25229567 36.6882365 -12.27734375 39.99609375 C-14.10864772 41.68595752 -14.10864772 41.68595752 -14 43 C-8.64396296 44.14318878 -3.28710473 45.28241684 2.07055664 46.41796875 C3.89337969 46.80489869 5.71597281 47.19291349 7.53833008 47.58203125 C10.15646756 48.14087138 12.77540481 48.69581591 15.39453125 49.25 C16.21025101 49.42499023 17.02597076 49.59998047 17.8664093 49.78027344 C20.9639266 50.43257662 23.82496779 51 27 51 C25.33233687 42.42207756 22.59351285 34.22451848 19.875 25.9375 C19.4019611 24.48515062 18.92930174 23.03267756 18.45703125 21.58007812 C17.30905993 18.05194875 16.15596072 14.52552098 15 11 C14.67 11 14.34 11 14 11 Z " fill="#F94515" transform="translate(40,30)"/>
<path d="M0 0 C17.72348849 0.02421242 17.72348849 0.02421242 23.32324219 4.69067383 C26.84491422 9.09276387 26.8579545 12.69077571 26.32324219 18.19067383 C24.64674565 21.96279104 22.23494333 24.32108406 19.32324219 27.19067383 C19.90074219 27.94993164 20.47824219 28.70918945 21.07324219 29.49145508 C21.81574219 30.48532227 22.55824219 31.47918945 23.32324219 32.50317383 C24.06574219 33.48930664 24.80824219 34.47543945 25.57324219 35.49145508 C27.32324219 38.19067383 27.32324219 38.19067383 27.32324219 41.19067383 C23.77813143 41.90986638 20.84312697 42.11302324 17.32324219 41.19067383 C13.97194998 37.93039115 11.53309295 34.30173697 9.32324219 30.19067383 C9.32324219 29.53067383 9.32324219 28.87067383 9.32324219 28.19067383 C7.01324219 28.19067383 4.70324219 28.19067383 2.32324219 28.19067383 C2.32324219 32.48067383 2.32324219 36.77067383 2.32324219 41.19067383 C-0.64675781 41.19067383 -3.61675781 41.19067383 -6.67675781 41.19067383 C-6.70140486 35.51237305 -6.71959243 29.83410313 -6.73168945 24.15576172 C-6.73673037 22.22248798 -6.743563 20.28921807 -6.75219727 18.35595703 C-6.76427346 15.58340511 -6.76998838 12.81090342 -6.77441406 10.03833008 C-6.77957535 9.16854019 -6.78473663 8.29875031 -6.79005432 7.40260315 C-6.79024967 5.33161569 -6.73883949 3.26073058 -6.67675781 1.19067383 C-4.8688232 -0.61726078 -2.40689239 0.02510554 0 0 Z M2.32324219 9.19067383 C2.32324219 12.49067383 2.32324219 15.79067383 2.32324219 19.19067383 C4.25951988 19.29874514 6.19751975 19.37629633 8.13574219 19.44067383 C9.2146875 19.48708008 10.29363281 19.53348633 11.40527344 19.58129883 C14.41016971 19.47093213 14.41016971 19.47093213 16.25292969 17.34301758 C17.62839442 15.16482539 17.62839442 15.16482539 16.63574219 12.50317383 C15.53566747 10.06475162 15.53566747 10.06475162 13.32324219 9.19067383 C11.44944614 9.12033614 9.57323117 9.10637163 7.69824219 9.12817383 C6.19390625 9.14170898 6.19390625 9.14170898 4.65917969 9.15551758 C3.50289063 9.17291992 3.50289063 9.17291992 2.32324219 9.19067383 Z " fill="#005675" transform="translate(276.6767578125,38.809326171875)"/>
<path d="M0 0 C2.05078125 0.03255208 4.1015625 0.06510417 6.15234375 0.09765625 C8.09210642 4.38396157 10.03095703 8.67067787 11.96899414 12.95776367 C12.62727728 14.41360387 13.28580172 15.86933499 13.94458008 17.32495117 C14.89599331 19.42727912 15.84651404 21.5300087 16.796875 23.6328125 C17.08762405 24.27477066 17.37837311 24.91672882 17.67793274 25.57814026 C18.50782888 27.41568748 19.33017622 29.25663807 20.15234375 31.09765625 C20.44136566 31.72985077 20.73038757 32.36204529 21.02816772 33.01339722 C22.31676561 35.89273559 23.15234375 37.9048944 23.15234375 41.09765625 C19.85234375 41.09765625 16.55234375 41.09765625 13.15234375 41.09765625 C11.66734375 36.64265625 11.66734375 36.64265625 10.15234375 32.09765625 C4.54234375 32.09765625 -1.06765625 32.09765625 -6.84765625 32.09765625 C-7.34265625 34.57265625 -7.34265625 34.57265625 -7.84765625 37.09765625 C-8.50765625 38.41765625 -9.16765625 39.73765625 -9.84765625 41.09765625 C-12.81765625 41.09765625 -15.78765625 41.09765625 -18.84765625 41.09765625 C-18.24777195 35.94277801 -16.61151908 31.78583177 -14.50390625 27.109375 C-14.01017517 25.99366875 -14.01017517 25.99366875 -13.50646973 24.85542297 C-12.81369837 23.29337219 -12.11763417 21.73277805 -11.41845703 20.17358398 C-10.3446238 17.77839236 -9.28086079 15.37892522 -8.21875 12.97851562 C-7.54354677 11.45937838 -6.86778527 9.94048911 -6.19140625 8.421875 C-5.8715979 7.70215012 -5.55178955 6.98242523 -5.22229004 6.2408905 C-2.47800779 0.13097293 -2.47800779 0.13097293 0 0 Z M1.15234375 13.09765625 C-1.13810639 17.90975526 -1.13810639 17.90975526 -1.84765625 23.09765625 C0.79234375 23.09765625 3.43234375 23.09765625 6.15234375 23.09765625 C4.83234375 19.79765625 3.51234375 16.49765625 2.15234375 13.09765625 C1.82234375 13.09765625 1.49234375 13.09765625 1.15234375 13.09765625 Z " fill="#005675" transform="translate(120.84765625,38.90234375)"/>
<path d="M0 0 C2.64 0 5.28 0 8 0 C12.31508815 8.38155863 16.21547291 16.87609534 19.875 25.5625 C20.37257812 26.72330078 20.87015625 27.88410156 21.3828125 29.08007812 C21.85203125 30.18931641 22.32125 31.29855469 22.8046875 32.44140625 C23.43866455 33.93716187 23.43866455 33.93716187 24.08544922 35.46313477 C25 38 25 38 25 41 C22.03 41 19.06 41 16 41 C14.68 38.36 13.36 35.72 12 33 C6.72 33 1.44 33 -4 33 C-5.32 35.64 -6.64 38.28 -8 41 C-10.97 41 -13.94 41 -17 41 C-16.33092912 36.38105347 -14.55330634 32.3658042 -12.65625 28.14453125 C-12.32709595 27.40168381 -11.99794189 26.65883636 -11.65881348 25.89347839 C-10.61060459 23.53101719 -9.55535753 21.17177509 -8.5 18.8125 C-7.78991069 17.21439431 -7.08027036 15.61608904 -6.37109375 14.01757812 C-1.28730673 2.57461346 -1.28730673 2.57461346 0 0 Z M3 14 C2.01 16.97 1.02 19.94 0 23 C2.64 23 5.28 23 8 23 C7.01 20.03 6.02 17.06 5 14 C4.34 14 3.68 14 3 14 Z " fill="#005675" transform="translate(221,39)"/>
<path d="M0 0 C1.0374939 0.00303635 1.0374939 0.00303635 2.09594727 0.00613403 C2.80243408 0.00517731 3.5089209 0.00422058 4.23681641 0.00323486 C5.7331552 0.00255321 7.22949694 0.00440649 8.72583008 0.00857544 C11.02374884 0.01392396 13.32147213 0.00863003 15.61938477 0.00222778 C17.06990603 0.00288857 18.52042718 0.00416974 19.97094727 0.00613403 C20.66260986 0.0041098 21.35427246 0.00208557 22.06689453 0 C26.91849503 0.0239943 26.91849503 0.0239943 28.03344727 1.13894653 C28.16625977 2.95144653 28.16625977 2.95144653 28.15844727 5.13894653 C28.16231445 6.22175903 28.16231445 6.22175903 28.16625977 7.32644653 C28.03344727 9.13894653 28.03344727 9.13894653 27.03344727 10.13894653 C23.40344727 10.13894653 19.77344727 10.13894653 16.03344727 10.13894653 C16.03344727 20.36894653 16.03344727 30.59894653 16.03344727 41.13894653 C12.73344727 41.13894653 9.43344727 41.13894653 6.03344727 41.13894653 C6.03344727 30.90894653 6.03344727 20.67894653 6.03344727 10.13894653 C2.40344727 10.13894653 -1.22655273 10.13894653 -4.96655273 10.13894653 C-5.96655273 9.13894653 -5.96655273 9.13894653 -6.09936523 7.32644653 C-6.09678711 6.60457153 -6.09420898 5.88269653 -6.09155273 5.13894653 C-6.09413086 4.41707153 -6.09670898 3.69519653 -6.09936523 2.95144653 C-5.81930031 -0.87061596 -3.22914681 0.01597021 0 0 Z " fill="#005574" transform="translate(178.966552734375,38.86105346679688)"/>
<path d="M0 0 C3.5625 0.125 3.5625 0.125 5.5625 1.125 C5.5625 11.355 5.5625 21.585 5.5625 32.125 C11.8325 32.125 18.1025 32.125 24.5625 32.125 C24.5625 35.095 24.5625 38.065 24.5625 41.125 C14.9925 41.125 5.4225 41.125 -4.4375 41.125 C-4.46040685 35.44664603 -4.48033457 29.76845119 -4.49243164 24.09008789 C-4.49747256 22.15681415 -4.50430519 20.22354424 -4.51293945 18.2902832 C-4.52501565 15.51773128 -4.53073057 12.74522959 -4.53515625 9.97265625 C-4.54031754 9.10286636 -4.54547882 8.23307648 -4.55079651 7.33692932 C-4.55099185 5.26594186 -4.49958168 3.19505676 -4.4375 1.125 C-3.4375 0.125 -3.4375 0.125 0 0 Z " fill="#005674" transform="translate(152.4375,38.875)"/>
<path d="M0 0 C3.5 0.125 3.5 0.125 4.5 1.125 C4.58868299 4.08205321 4.61520296 7.01565056 4.59765625 9.97265625 C4.5962413 10.8590831 4.59482635 11.74550995 4.59336853 12.65879822 C4.58775215 15.50173254 4.57519691 18.34458931 4.5625 21.1875 C4.55748711 23.11002491 4.55292384 25.03255104 4.54882812 26.95507812 C4.53777741 31.67841549 4.52050183 36.40169458 4.5 41.125 C1.53 41.125 -1.44 41.125 -4.5 41.125 C-4.52464705 35.44669922 -4.54283462 29.76842931 -4.55493164 24.09008789 C-4.55997256 22.15681415 -4.56680519 20.22354424 -4.57543945 18.2902832 C-4.58751565 15.51773128 -4.59323057 12.74522959 -4.59765625 9.97265625 C-4.60281754 9.10286636 -4.60797882 8.23307648 -4.61329651 7.33692932 C-4.61349185 5.26594186 -4.56208168 3.19505676 -4.5 1.125 C-3.5 0.125 -3.5 0.125 0 0 Z " fill="#005675" transform="translate(255.5,38.875)"/>
</svg>
