<?xml version="1.0" encoding="UTF-8"?>
<svg version="1.1" xmlns="http://www.w3.org/2000/svg" width="792" height="256">
<path d="M0 0 C10.51528452 7.27846649 14.80994269 18.02807916 17.17481995 30.20129395 C18.35299097 37.92159446 18.01377964 45.80860501 17.92578125 53.59375 C17.91830026 55.56627828 17.91261614 57.5388141 17.90863037 59.51135254 C17.89352012 64.6471693 17.85436831 69.78251743 17.80981445 74.91815186 C17.76125767 81.10998351 17.74325801 87.30197382 17.72000122 93.49394226 C17.68150526 102.85045187 17.60475051 112.2059378 17.53515625 121.5625 C4.99515625 121.5625 -7.54484375 121.5625 -20.46484375 121.5625 C-20.51382813 116.35984375 -20.5628125 111.1571875 -20.61328125 105.796875 C-20.64871269 102.47914852 -20.68469834 99.1614462 -20.72265625 95.84375 C-20.78270652 90.59053208 -20.84082657 85.33734755 -20.88671875 80.08398438 C-20.92389313 75.84337037 -20.97033496 71.60294548 -21.02290726 67.36249542 C-21.04128203 65.7536174 -21.05645067 64.14469911 -21.06818771 62.53575897 C-20.64989051 45.27524572 -20.64989051 45.27524572 -26.46484375 29.5625 C-31.75203 25.63100253 -36.97326119 24.94316173 -43.46484375 25.5625 C-49.92896921 26.87309588 -55.20160188 29.44660976 -59.46484375 34.5625 C-63.66431902 41.68501429 -64.56959037 48.6632966 -64.67016602 56.85302734 C-64.68006561 57.55616058 -64.68996521 58.25929382 -64.70016479 58.98373413 C-64.73154248 61.28860198 -64.75644244 63.59349038 -64.78125 65.8984375 C-64.80184007 67.50412506 -64.82283706 69.10980746 -64.84422302 70.71548462 C-64.89923175 74.92726435 -64.94873388 79.13909127 -64.99707031 83.35095215 C-65.05630783 88.41217675 -65.12241837 93.47331573 -65.1873703 98.5344696 C-65.28511283 106.21042713 -65.37415125 113.88644136 -65.46484375 121.5625 C-78.00484375 121.5625 -90.54484375 121.5625 -103.46484375 121.5625 C-103.46484375 80.6425 -103.46484375 39.7225 -103.46484375 -2.4375 C-91.25484375 -2.4375 -79.04484375 -2.4375 -66.46484375 -2.4375 C-65.96984375 4.4925 -65.96984375 4.4925 -65.46484375 11.5625 C-64.22734375 10.20125 -62.98984375 8.84 -61.71484375 7.4375 C-46.45349875 -7.84791653 -18.5934136 -10.84370239 0 0 Z " fill="#000000" transform="translate(347.46484375,73.4375)"/>
<path d="M0 0 C12.54 0 25.08 0 38 0 C40.76268154 6.77537094 43.52525897 13.550783 46.28694153 20.32656097 C47.57368996 23.48351739 48.86060311 26.6404064 50.14794922 29.79711914 C61.08635665 56.62124681 61.08635665 56.62124681 66 69 C68.69797214 63.7348754 71.1309618 58.46245516 73.3203125 52.96875 C73.77124016 51.8497657 73.77124016 51.8497657 74.23127747 50.70817566 C74.87001039 49.12244991 75.50731635 47.53614871 76.14328003 45.9493103 C77.80089418 41.81369981 79.46913429 37.68237928 81.13671875 33.55078125 C81.46638138 32.73333939 81.79604401 31.91589752 82.13569641 31.07368469 C86.33322598 20.67750275 90.66414697 10.33934184 95 0 C107.54 0 120.08 0 133 0 C131.12114387 5.63656839 129.23273601 11.12331073 126.98828125 16.6015625 C126.7033783 17.30335632 126.41847534 18.00515015 126.12493896 18.72821045 C125.19026518 21.02829339 124.251471 23.32666835 123.3125 25.625 C122.64426746 27.26636455 121.97622124 28.90780497 121.30834961 30.54931641 C119.21052814 35.70157564 117.10630363 40.85120331 115 46 C114.66556885 46.81750732 114.3311377 47.63501465 113.98657227 48.47729492 C109.66958733 59.02698637 105.34009296 69.57152917 101.00732422 80.11474609 C98.03877569 87.33858016 95.07370645 94.56384141 92.10913086 101.78930664 C91.13102294 104.1728229 90.15245346 106.55614927 89.17382812 108.93945312 C85.87251041 116.98174788 82.57910454 125.02718735 79.2989502 133.07814026 C77.62850056 137.17815442 75.95639415 141.27749226 74.28436279 145.37686157 C73.47276144 147.36832347 72.66208546 149.36016275 71.85235596 151.35238647 C70.72800367 154.11864494 69.60063959 156.88365809 68.47265625 159.6484375 C68.13491684 160.48183151 67.79717743 161.31522552 67.44920349 162.1738739 C65.1137528 167.8862472 65.1137528 167.8862472 64 169 C61.26105915 169.08858646 58.5474673 169.11523479 55.80859375 169.09765625 C54.98875504 169.0962413 54.16891632 169.09482635 53.32423401 169.09336853 C50.69528618 169.08775289 48.06642227 169.07519779 45.4375 169.0625 C43.65950643 169.05748701 41.88151154 169.05292376 40.10351562 169.04882812 C35.73564455 169.03777839 31.36783652 169.02050331 27 169 C27.59915845 163.20078946 29.7892092 158.33177901 32.0703125 153.03515625 C32.89252025 151.08162976 33.71411624 149.12784569 34.53515625 147.17382812 C35.82974117 144.11191108 37.1293293 141.05240822 38.43994141 137.99731445 C39.70664808 135.03682231 40.95229901 132.06815917 42.1953125 129.09765625 C42.78894089 127.7364138 42.78894089 127.7364138 43.39456177 126.34767151 C46.17610672 119.643255 46.25739256 115.54949054 43.79516602 108.59887695 C43.28655029 107.40738037 42.77793457 106.21588379 42.25390625 104.98828125 C41.97146057 104.31911682 41.68901489 103.64995239 41.39801025 102.96051025 C40.78334476 101.50643921 40.16499487 100.05392128 39.54336548 98.60281372 C37.82981941 94.60169619 36.14409016 90.58882436 34.453125 86.578125 C33.91405266 85.30292747 33.91405266 85.30292747 33.36408997 84.00196838 C29.09516137 73.8903519 24.9550399 63.72638441 20.8125 53.5625 C19.30150545 49.85647497 17.78990368 46.15069893 16.27734375 42.4453125 C15.91380295 41.55472137 15.55026215 40.66413025 15.17570496 39.74655151 C12.87152439 34.10996697 10.54243844 28.48437974 8.19140625 22.8671875 C7.90322525 22.17731247 7.61504425 21.48743744 7.31813049 20.7766571 C6.00216334 17.62701327 4.68127208 14.47975843 3.35083008 11.33618164 C2.90247803 10.26489014 2.45412598 9.19359863 1.9921875 8.08984375 C1.60401855 7.17066162 1.21584961 6.25147949 0.81591797 5.30444336 C0 3 0 3 0 0 Z " fill="#000000" transform="translate(500,71)"/>
<path d="M0 0 C-0.61556615 5.88207656 -2.82660781 10.96097435 -5.0625 16.375 C-5.43955078 17.30183594 -5.81660156 18.22867188 -6.20507812 19.18359375 C-7.13126396 21.45802479 -8.06302668 23.72999667 -9 26 C-13.64988111 26 -16.17827599 24.43216437 -20.0625 22.1875 C-31.7311662 15.74199129 -45.80085876 11.51069 -59.12109375 15.21484375 C-62.34787028 16.56324725 -64.02947486 18.13956028 -66 21 C-66.9168022 24.54321553 -66.9168022 24.54321553 -66 28 C-61.99146078 31.19253644 -58.31807595 32.72683693 -53.375 33.9375 C-52.42306763 34.17835327 -52.42306763 34.17835327 -51.4519043 34.42407227 C-48.48943018 35.16903018 -45.51858321 35.87698484 -42.54638672 36.58203125 C-9.55111582 44.41548634 -9.55111582 44.41548634 -0.2265625 58.55859375 C4.1842665 67.33811008 4.64064936 79.47647726 1.9375 88.9375 C-2.63377065 100.07864335 -11.38137397 106.22082432 -22.125 110.75 C-45.01115411 119.03590679 -73.50319734 116.10355079 -95.62890625 106.41015625 C-99.58424962 104.46342287 -103.33134875 102.4457675 -107 100 C-104.58650007 90.64481454 -100.75743534 81.873724 -97 73 C-93.76248879 73.73148973 -91.00535671 74.90317373 -88.02539062 76.37451172 C-73.68950927 83.45036683 -55.86682442 89.65079684 -39.9375 84.6875 C-36.9529186 83.63706074 -34.97483004 82.50955325 -33 80 C-32.73358106 76.27013478 -32.8154869 73.55353929 -34 70 C-35.7722941 69.09233444 -35.7722941 69.09233444 -38.046875 68.546875 C-38.95373047 68.29873047 -39.86058594 68.05058594 -40.79492188 67.79492188 C-44.4229885 66.8950906 -48.0598421 66.03868435 -51.703125 65.203125 C-52.39345825 65.04453003 -53.0837915 64.88593506 -53.79504395 64.72253418 C-58.09133026 63.73759309 -58.09133026 63.73759309 -62.39404297 62.78125 C-76.33604748 59.71777453 -90.7793151 55.64388806 -99 43 C-103.72354546 34.84261432 -103.28509507 22.9512141 -101.34375 13.9609375 C-97.74364989 3.93652081 -89.55972036 -3.76494665 -80.140625 -8.41015625 C-54.30313469 -19.65667805 -23.18622593 -15.60611361 0 0 Z " fill="#000000" transform="translate(741,82)"/>
<path d="M0 0 C1.13453613 0.00684814 2.26907227 0.01369629 3.43798828 0.02075195 C20.07974397 0.3370946 35.38662479 5.10638207 49.25 14.4375 C48.63443385 20.31957656 46.42339219 25.39847435 44.1875 30.8125 C43.81044922 31.73933594 43.43339844 32.66617188 43.04492188 33.62109375 C42.11873604 35.89552479 41.18697332 38.16749667 40.25 40.4375 C35.60011889 40.4375 33.07172401 38.86966437 29.1875 36.625 C17.5188338 30.17949129 3.44914124 25.94819 -9.87109375 29.65234375 C-13.09787028 31.00074725 -14.77947486 32.57706028 -16.75 35.4375 C-17.6668022 38.98071553 -17.6668022 38.98071553 -16.75 42.4375 C-12.21347314 46.18013466 -7.71556671 47.53236025 -2.0625 48.875 C-1.23741943 49.08326416 -0.41233887 49.29152832 0.43774414 49.50610352 C3.88507478 50.3755269 7.33860263 51.21786932 10.79492188 52.05078125 C38.19084726 58.68055242 38.19084726 58.68055242 46.25 68.4375 C52.44341188 78.62509657 53.55460305 88.58056187 51.82421875 100.328125 C49.57749693 109.09447516 44.43578868 115.25739903 37 120.25 C17.16461573 131.89250816 -8.25179666 131.80420379 -30.1875 126.40234375 C-40.03152742 123.7647514 -49.22652514 120.11981657 -57.75 114.4375 C-55.33650007 105.08231454 -51.50743534 96.311224 -47.75 87.4375 C-44.51248879 88.16898973 -41.75535671 89.34067373 -38.77539062 90.81201172 C-24.43950927 97.88786683 -6.61682442 104.08829684 9.3125 99.125 C12.302838 98.07253467 14.25571076 96.93490781 16.25 94.4375 C16.91676878 90.98000051 16.91676878 90.98000051 16.25 87.4375 C12.91962054 84.20894868 9.94446376 82.74693831 5.5 81.5625 C4.27796875 81.23121094 3.0559375 80.89992188 1.796875 80.55859375 C-1.69982523 79.67320105 -5.21322701 78.87970432 -8.734375 78.09765625 C-38.33838058 71.46393777 -38.33838058 71.46393777 -48.19921875 59.94140625 C-53.80281438 50.8937871 -54.10703155 40.79238607 -52.75 30.4375 C-49.93587191 20.88183428 -44.00300767 13.61492903 -35.546875 8.5 C-24.12793903 2.32525769 -12.97630252 -0.12139184 0 0 Z " fill="#000000" transform="translate(439.75,67.5625)"/>
<path d="M0 0 C16.5 0 33 0 50 0 C48.12114387 5.63656839 46.23273601 11.12331073 43.98828125 16.6015625 C43.7033783 17.30335632 43.41847534 18.00515015 43.12493896 18.72821045 C42.19026518 21.02829339 41.251471 23.32666835 40.3125 25.625 C39.64426746 27.26636455 38.97622124 28.90780497 38.30834961 30.54931641 C36.21052814 35.70157564 34.10630363 40.85120331 32 46 C31.66556885 46.81750732 31.3311377 47.63501465 30.98657227 48.47729492 C26.66958733 59.02698637 22.34009296 69.57152917 18.00732422 80.11474609 C14.71033909 88.13781637 11.4174947 96.16258612 8.125 104.1875 C7.80230133 104.97399933 7.47960266 105.76049866 7.14712524 106.5708313 C1.90871303 119.33902263 -3.32358069 132.10971638 -8.55084229 144.88247681 C-9.34087641 146.81284699 -10.13103448 148.74316645 -10.92132568 150.6734314 C-12.02608613 153.3719635 -13.13030692 156.07071581 -14.234375 158.76953125 C-14.55663055 159.55647369 -14.87888611 160.34341614 -15.21090698 161.15420532 C-17.5026004 166.75862001 -19.75110184 172.3777546 -22 178 C-38.5 178 -55 178 -72 178 C-71.10472686 173.52363431 -69.77990347 169.69752817 -68.03515625 165.52734375 C-67.73065048 164.78907852 -67.42614471 164.05081329 -67.1124115 163.29017639 C-66.09983906 160.83758203 -65.08107793 158.38760561 -64.0625 155.9375 C-63.34258215 154.19617712 -62.62319173 152.4546361 -61.90429688 150.71289062 C-60.77169023 147.96909669 -59.63869747 145.22546779 -58.50405884 142.48251343 C-54.68634046 133.25287667 -50.90538696 124.00835171 -47.12838745 114.76199341 C-45.23277158 110.12202817 -43.33520573 105.48286082 -41.4375 100.84375 C-41.06439194 99.93162247 -40.69128387 99.01949493 -40.30686951 98.07972717 C-36.2233407 88.09871418 -32.12913144 78.12208871 -28.03359985 68.14599609 C-24.05065946 58.44389404 -20.0738817 48.73930429 -16.10546875 39.03125 C-15.69459015 38.02622437 -15.28371155 37.02119873 -14.86038208 35.98571777 C-12.85597951 31.08260648 -10.85226897 26.17921408 -8.84960938 21.27539062 C-8.12241576 19.49608561 -7.39520317 17.71678834 -6.66796875 15.9375 C-6.34056198 15.13509888 -6.01315521 14.33269775 -5.67582703 13.50598145 C-5.36667862 12.74990601 -5.05753021 11.99383057 -4.73901367 11.21484375 C-4.47416672 10.56636475 -4.20931976 9.91788574 -3.93644714 9.24975586 C-2.64877419 6.1562019 -1.31996342 3.07991466 0 0 Z " fill="#FCB426" transform="translate(100,17)"/>
<path d="M0 0 C2.24546069 2.05450057 3.55499088 3.80894947 4.71972656 6.61450195 C5.026604 7.34313446 5.33348145 8.07176697 5.6496582 8.82247925 C5.97667725 9.61969391 6.30369629 10.41690857 6.640625 11.23828125 C7.17224243 12.5080632 7.17224243 12.5080632 7.71459961 13.80349731 C8.48925493 15.65597837 9.26054989 17.50986729 10.02893066 19.36495972 C11.70764577 23.41721149 13.40282934 27.46251052 15.09686279 31.50837708 C16.00105341 33.66833881 16.90439561 35.82865588 17.8069458 37.98930359 C22.89486929 50.16418534 28.07147766 62.3009486 33.25 74.4375 C34.20998199 76.68916532 35.16986104 78.94087452 36.12963867 81.19262695 C38.08139651 85.77161629 40.03350335 90.35045658 41.98583984 94.92919922 C45.11370115 102.26573005 48.23875496 109.60345467 51.36328125 116.94140625 C51.89051162 118.17956097 52.41774347 119.41771507 52.94497681 120.65586853 C54.97457463 125.42223304 57.00414411 130.18860961 59.03356934 134.95504761 C59.97256681 137.16035333 60.91170017 139.36560119 61.85098267 141.57078552 C62.729074 143.63296973 63.60651929 145.69542917 64.48324585 147.75819397 C66.2967146 152.02173284 68.1164836 156.28149399 69.97998047 160.5234375 C70.2678392 161.18186646 70.55569794 161.84029541 70.85227966 162.51867676 C71.58188723 164.1830275 72.31782927 165.84459772 73.05444336 167.50585938 C74 170 74 170 74 173 C56.84 173 39.68 173 22 173 C17.50027214 164.00054429 17.50027214 164.00054429 15.96386719 160.21264648 C15.6148233 159.35671402 15.26577942 158.50078156 14.90615845 157.61891174 C14.54009491 156.71213181 14.17403137 155.80535187 13.796875 154.87109375 C13.40172699 153.89990097 13.00657898 152.92870819 12.59945679 151.92808533 C11.31343211 148.76571543 10.03173645 145.60161006 8.75 142.4375 C7.40517008 139.12762799 6.0592368 135.81820596 4.71328735 132.50878906 C3.80354752 130.27163766 2.89418629 128.03433227 1.98519897 125.796875 C-2.59696276 114.52012038 -7.21957007 103.26010027 -11.85070801 92.00338745 C-12.16326538 91.24357574 -12.47582275 90.48376404 -12.79785156 89.70092773 C-13.10251343 88.96053757 -13.40717529 88.2201474 -13.72106934 87.45732117 C-14.59298747 85.33241415 -15.45820205 83.20486259 -16.32324219 81.07714844 C-17.44975505 78.31384462 -18.61575228 75.57177538 -19.80957031 72.83691406 C-20.09559113 72.16560455 -20.38161194 71.49429504 -20.67630005 70.80264282 C-21.45225568 68.98192233 -22.24337715 67.16768598 -23.03564453 65.35400391 C-24.94862653 58.70070094 -22.5159494 53.17910287 -19.90234375 47.109375 C-19.59201202 46.37054077 -19.2816803 45.63170654 -18.96194458 44.8704834 C-17.96149673 42.49365201 -16.94967584 40.1218575 -15.9375 37.75 C-15.25046333 36.12369214 -14.56418533 34.49706357 -13.87866211 32.87011719 C-12.53515558 29.68496689 -11.18733234 26.50170891 -9.83496094 23.3203125 C-7.90578323 18.78177125 -5.99429064 14.23591168 -4.08618164 9.68847656 C-2.72947447 6.45671143 -1.36539943 3.22810089 0 0 Z " fill="#000000" transform="translate(160,22)"/>
</svg>
