<?xml version="1.0" standalone="no"?>
<!DOCTYPE svg PUBLIC "-//W3C//DTD SVG 20010904//EN"
 "http://www.w3.org/TR/2001/REC-SVG-20010904/DTD/svg10.dtd">
<svg version="1.0" xmlns="http://www.w3.org/2000/svg"
 width="668.000000pt" height="236.000000pt" viewBox="0 0 668.000000 236.000000"
 preserveAspectRatio="xMidYMid meet">

<g transform="translate(0.000000,236.000000) scale(0.100000,-0.100000)"
fill="#3A3737" stroke="none">
<path d="M3347 2132 l-217 -217 58 -58 57 -57 218 218 217 217 -58 58 -57 57
-218 -218z" fill="#D0200E"/>
<path d="M3580 2063 c-69 -71 -163 -167 -210 -216 l-85 -87 58 -57 57 -58 217
217 218 218 -55 55 c-30 30 -59 55 -65 55 -6 0 -66 -57 -135 -127z" fill="#D0200E"/>
<path d="M3657 1822 l-217 -217 60 -60 60 -60 218 218 217 217 -60 60 -60 60
-218 -218z" fill="#D0200E"/>
<path d="M3027 1812 l-57 -57 215 -215 215 -215 57 58 58 57 -215 215 -215
215 -58 -58z"/>
<path d="M2870 1655 l-55 -55 215 -215 215 -215 57 57 58 58 -212 212 c-117
117 -215 213 -218 213 -3 0 -30 -25 -60 -55z"/>
<path d="M2710 1495 l-55 -55 215 -215 215 -215 57 57 58 58 -212 212 c-117
117 -215 213 -218 213 -3 0 -30 -25 -60 -55z"/>
<path d="M5192 938 l3 -73 83 -3 82 -3 0 76 0 75 -85 0 -86 0 3 -72z" fill="#D0200E"/>
<path d="M5478 888 l-3 -83 -32 -3 -33 -3 0 -60 0 -59 35 0 35 0 0 -195 c0
-156 3 -202 15 -225 26 -50 80 -68 188 -62 l37 2 0 60 c0 57 -1 60 -24 60 -44
0 -50 21 -54 196 l-4 164 41 0 41 0 0 59 0 60 -37 3 -38 3 -3 83 -3 82 -79 0
-79 0 -3 -82z" fill="#D0200E"/>
<path d="M155 809 c-107 -25 -155 -122 -155 -305 1 -114 26 -222 60 -259 29
-31 101 -55 164 -55 134 0 216 68 216 180 l0 40 -75 0 -75 0 0 -34 c0 -42 -22
-66 -59 -66 -41 0 -53 21 -59 100 l-5 70 143 0 143 0 -6 98 c-8 135 -29 182
-100 218 -35 19 -140 26 -192 13z m120 -119 c11 -12 19 -37 19 -63 l1 -42 -57
-3 -58 -3 0 46 c0 73 54 110 95 65z"/>
<path d="M663 811 c-81 -21 -125 -69 -138 -148 l-7 -43 86 0 c84 0 86 0 86 24
0 32 25 56 59 56 34 0 51 -17 51 -50 0 -36 -21 -52 -117 -93 -102 -43 -136
-67 -157 -111 -18 -39 -21 -121 -5 -163 34 -91 154 -118 245 -56 36 24 54 23
54 -3 0 -11 18 -14 86 -14 66 0 83 3 77 13 -4 6 -10 121 -13 254 -6 271 -7
276 -83 316 -41 21 -171 32 -224 18z m137 -368 c0 -27 -3 -64 -6 -85 -5 -31
-11 -37 -38 -41 -51 -8 -86 17 -86 63 0 35 24 66 68 90 56 29 62 26 62 -27z"/>
<path d="M1174 811 c-105 -27 -158 -115 -133 -216 15 -59 60 -103 156 -153 94
-48 108 -62 99 -97 -15 -60 -98 -55 -114 7 l-8 33 -72 3 -72 3 0 -30 c0 -72
54 -141 126 -161 58 -17 164 -8 206 17 93 54 114 197 43 282 -14 16 -66 50
-115 75 -49 26 -95 56 -101 67 -16 30 13 69 50 69 32 0 46 -13 56 -53 7 -26 9
-27 76 -27 69 0 69 0 69 28 0 46 -41 114 -81 134 -40 21 -139 31 -185 19z" />
<path d="M2067 806 c-91 -33 -119 -93 -125 -267 -8 -251 39 -337 191 -347 112
-7 177 21 214 91 16 33 33 125 26 144 -4 9 -29 13 -84 13 l-79 0 0 -43 c0 -52
-23 -89 -53 -85 -37 5 -47 43 -47 190 0 161 7 188 49 188 36 0 51 -22 51 -74
l0 -36 80 0 80 0 0 38 c0 94 -50 170 -125 191 -54 15 -132 13 -178 -3z" fill="#D0200E"/>
<path d="M2581 808 c-51 -14 -80 -37 -101 -78 -59 -117 -49 -409 18 -483 52
-59 201 -77 283 -34 58 31 86 86 100 197 11 94 5 197 -17 276 -29 107 -152
160 -283 122z m121 -140 c8 -16 12 -71 12 -171 0 -136 -1 -149 -21 -168 -31
-31 -60 -18 -74 34 -15 58 -8 289 10 310 20 24 58 21 73 -5z" fill="#D0200E"/>
<path d="M3212 810 c-19 -4 -46 -20 -61 -34 -34 -32 -41 -33 -41 -1 0 24 -2
25 -75 25 l-75 0 2 -297 3 -298 78 -3 77 -3 0 204 c0 224 7 263 48 274 48 12
52 -9 52 -254 l0 -224 78 3 77 3 5 221 c5 236 9 254 56 254 13 0 25 -1 26 -2
1 -2 5 -109 8 -238 l5 -235 78 -3 78 -3 -3 270 c-3 256 -4 271 -24 298 -45 61
-140 62 -207 3 -32 -27 -34 -28 -45 -10 -26 42 -84 63 -140 50z" fill="#D0200E"/>
<path d="M3960 809 c-14 -5 -37 -22 -52 -36 l-28 -27 0 27 0 27 -80 0 -80 0 0
-400 0 -400 85 0 85 0 0 120 c0 66 3 120 6 120 3 0 19 -11 36 -25 23 -20 41
-25 82 -25 60 0 96 21 122 71 24 47 38 243 26 365 -11 109 -23 141 -65 169
-30 20 -105 28 -137 14z m27 -166 c12 -30 14 -62 10 -153 -6 -133 -10 -148
-45 -157 -19 -5 -30 0 -45 18 -17 21 -18 37 -15 160 3 146 11 169 55 169 18 0
28 -9 40 -37z" fill="#D0200E"/>
<path d="M4357 806 c-92 -34 -119 -93 -125 -267 -8 -248 39 -336 187 -347 182
-13 241 53 249 279 7 192 -19 277 -97 323 -43 25 -161 32 -214 12z m131 -141
c14 -31 16 -283 3 -318 -13 -33 -48 -44 -70 -23 -13 14 -17 44 -19 162 -4 169
4 204 48 204 19 0 30 -7 38 -25z" fill="#D0200E"/>
<path d="M4837 806 c-102 -38 -144 -141 -98 -241 24 -53 50 -75 149 -126 50
-25 87 -51 92 -63 10 -26 -4 -54 -34 -68 -33 -14 -62 4 -76 47 l-12 35 -75 0
-75 0 7 -42 c18 -110 83 -158 213 -158 150 0 239 104 203 238 -17 61 -52 95
-151 146 -101 53 -120 74 -95 112 31 48 95 24 95 -35 0 -19 6 -21 75 -21 l75
0 0 28 c0 47 -41 114 -83 135 -50 26 -159 32 -210 13z" fill="#D0200E"/>
<path d="M5899 804 c-104 -32 -133 -109 -127 -338 3 -128 6 -145 28 -185 35
-62 76 -83 170 -89 129 -7 198 29 225 121 8 28 15 61 15 74 0 22 -3 23 -80 23
l-80 0 0 -34 c0 -40 -22 -66 -54 -66 -40 0 -56 30 -56 103 l0 67 135 0 135 0
0 88 c0 48 -5 105 -11 127 -28 102 -164 151 -300 109z m131 -112 c17 -14 23
-30 24 -63 l1 -44 -55 0 c-53 0 -55 1 -58 29 -6 51 17 87 59 95 4 0 17 -7 29
-17z" fill="#D0200E"/>
<path d="M6376 804 c-51 -19 -75 -40 -97 -89 -24 -51 -23 -99 0 -151 22 -48
59 -78 158 -128 66 -33 93 -57 93 -85 0 -18 -39 -51 -60 -51 -28 0 -60 35 -60
65 0 24 -2 25 -76 25 l-77 0 5 -49 c10 -98 79 -150 201 -151 138 0 217 69 217
190 0 89 -36 132 -168 200 -62 32 -84 48 -89 68 -8 33 8 56 41 60 34 4 52 -10
60 -48 l6 -30 75 0 c55 0 75 3 75 13 0 30 -32 106 -53 125 -52 49 -171 66
-251 36z" fill="#D0200E"/>
<path d="M1487 688 c108 -494 111 -513 98 -533 -7 -11 -26 -21 -44 -23 l-31
-3 0 -65 0 -64 60 0 c74 0 129 25 158 72 28 46 42 100 115 436 l63 292 -81 0
-81 0 -24 -157 c-20 -139 -35 -209 -40 -193 -1 3 -14 82 -29 175 l-27 170 -81
3 -81 3 25 -113z"/>
<path d="M5192 503 l3 -298 83 -3 82 -3 0 301 0 300 -85 0 -85 0 2 -297z" fill="#D0200E"/>
</g>
</svg>
