<?xml version="1.0" encoding="utf-8"?>
<!-- Generator: Adobe Illustrator 19.2.1, SVG Export Plug-In . SVG Version: 6.00 Build 0)  -->
<svg version="1.1" id="layer" xmlns="http://www.w3.org/2000/svg" xmlns:xlink="http://www.w3.org/1999/xlink" x="0px" y="0px"
	 viewBox="0 0 652 652" style="enable-background:new 0 0 652 652;" xml:space="preserve">
<style type="text/css">
	.st0{fill-rule:evenodd;clip-rule:evenodd;fill:#731484;}
	.st1{fill-rule:evenodd;clip-rule:evenodd;fill:#888888;}
</style>
<path class="st0" d="M338.6,269.1L338.6,269.1l-28.7,0.1c0-37.6,0.5-37.8-3.2-46.6c-1.4-3-3.9-5.8-5.7-7.6
	c-6.6-6.4-21.4-12.5-31-14.3c-2.3-0.5-3.9-0.7-4.6-0.7c-28.7,32.2,0.5-0.3-28.3,31.9c16-3,23.5,1.7,28.3,5.5c5.5,4.5,8,9.9,8,14.5
	v42c0,12.1-0.5,23.3-0.5,35.3c0,4.8,0,9.5-5.5,13c-9.1,5.7-23.7,3.7-35.6,9.7c-12.3,6.2-22.4,16.7-22.4,24.4
	c3.9-0.7,7.3-1.1,10.5-1.3c10.3-0.6,13.9-0.5,23.3,1.8c1.6,0.4,2.7,0.7,4.1,1.2c8.7,2.8,24.9,8.2,33.5,8.2h4.6
	c13.2,0,24.4-10.8,24.4-23.2v-51.5h28.5v38c0,0,0,2.5,0.2,4.1c0.9,6.4,6.2,14.8,13.2,20.8l5,3.8c6.4,4,13.2,6.3,21.7,6.3l27.8-31.3
	c-1.4,0.3-2.3,0.5-5.7,0.7c-7.5,0.6-19.6,0.9-23.7-6.4c-2.1-3.7-1.6-8.9-1.6-12.9l-0.2-89.1c0-2.4,1.4-5.8,3-7.6
	c3-3.4,6.6-5.7,11.2-7.1c7.5-2.4,10.7-1.2,22.4-7.2c16.2-11.5,22.4-23.3,22.4-35.9v-3.7c-1.1,1,0,0-2.7,2.2
	c-12.8,10.5-15.3,11.4-35.1,14.8l-10.3,1c-10.5,1.6-20.1,3.3-29.2,9.2c-6.4,4.5-10.3,8.9-13.5,13.8c-2.5,4.4-3.6,7-4.6,12
	C338.3,241.8,338.6,258.5,338.6,269.1"/>
<path class="st1" d="M315.1,456.1c0.3,0.2,0.4,0.5,0.5,0.7c0.1,0.3,0.1,0.5,0.1,0.8c-0.1,0.3-0.3,0.5-0.5,0.6
	c-0.2,0.1-0.5,0.2-0.9,0.2h-3.3c-0.4,0-0.7-0.1-1-0.2c-0.3-0.1-0.6-0.3-0.8-0.5l-8.4-8.3h-15v7.3c0,0.6-0.1,1-0.4,1.3
	c-0.3,0.3-0.7,0.5-1.2,0.5h-2.3c-1,0-1.6-0.6-1.6-1.8v-25.4c0-0.6,0.1-1,0.4-1.3c0.3-0.3,0.7-0.5,1.2-0.5h23.1
	c0.9,0,1.8,0.1,2.6,0.2c0.8,0.1,1.6,0.4,2.3,0.6c0.7,0.3,1.3,0.6,1.9,1c0.5,0.4,1,0.8,1.4,1.3c0.4,0.5,0.7,1,1,1.5
	c0.3,0.5,0.5,1.1,0.7,1.6c0.2,0.6,0.3,1.1,0.4,1.7c0.1,0.6,0.1,1.2,0.1,1.8c0,1.2-0.2,2.4-0.5,3.4c-0.3,1.1-0.8,2.1-1.5,3
	c-0.7,0.9-1.6,1.7-2.6,2.2c-0.9,0.5-1.9,0.8-3.1,1L315.1,456.1z M285.9,435.4v8.5h19.2c0.9,0,1.6-0.1,2.2-0.3
	c0.6-0.2,1.1-0.4,1.5-0.8c0.4-0.3,0.7-0.8,0.9-1.3c0.2-0.6,0.3-1.2,0.3-2c0-0.8-0.1-1.4-0.3-1.9c-0.2-0.5-0.5-0.9-0.9-1.2
	c-0.4-0.3-0.9-0.5-1.5-0.7c-0.6-0.2-1.4-0.2-2.3-0.2H285.9z M620.1,435.4c1,0,1.6-0.6,1.6-1.8v-2.3c0-1.2-0.5-1.8-1.6-1.8h-29.8
	c-1,0-1.6,0.6-1.6,1.8v25.4c0,1.2,0.5,1.8,1.6,1.8h29.8c1,0,1.6-0.6,1.6-1.8v-2.3c0-1.2-0.5-1.8-1.6-1.8h-26V447H618
	c0.5,0,0.9-0.2,1.2-0.5c0.3-0.3,0.4-0.7,0.4-1.3v-2c0-1.2-0.5-1.8-1.6-1.8h-23.9v-6H620.1 M555.1,435.4v8.5h19.2
	c0.9,0,1.6-0.1,2.2-0.3c0.6-0.2,1.1-0.4,1.5-0.8c0.4-0.3,0.7-0.8,0.9-1.3c0.2-0.6,0.3-1.2,0.3-2c0-1.5-0.4-2.5-1.2-3.1
	c-0.4-0.3-0.9-0.5-1.5-0.7c-0.6-0.2-1.4-0.2-2.3-0.2H555.1z M584.3,456.1c0.3,0.2,0.4,0.5,0.5,0.7c0.1,0.3,0.1,0.5,0.1,0.8
	c-0.1,0.3-0.3,0.5-0.5,0.6c-0.2,0.1-0.5,0.2-0.9,0.2h-3.3c-0.7,0-1.3-0.2-1.8-0.7l-8.4-8.3h-15v7.3c0,1.2-0.5,1.8-1.6,1.8h-2.3
	c-1,0-1.6-0.6-1.6-1.8v-25.4c0-1.2,0.5-1.8,1.6-1.8h23.1c0.9,0,1.8,0.1,2.6,0.2c0.8,0.1,1.6,0.4,2.3,0.6c1.4,0.6,2.5,1.3,3.3,2.3
	c0.4,0.5,0.7,1,1,1.5c0.3,0.5,0.5,1.1,0.7,1.6c0.2,0.6,0.3,1.1,0.4,1.7c0.1,0.6,0.1,1.2,0.1,1.8c0,1.2-0.2,2.4-0.5,3.4
	c-0.3,1.1-0.8,2.1-1.5,3c-0.7,0.9-1.6,1.7-2.6,2.2c-0.9,0.5-1.9,0.8-3.1,1L584.3,456.1z M543,458.4c0.5,0,0.9-0.2,1.2-0.5
	c0.3-0.3,0.4-0.7,0.4-1.3v-25.4c0-1.2-0.5-1.8-1.6-1.8h-2.3c-0.5,0-0.9,0.2-1.2,0.5c-0.3,0.3-0.4,0.7-0.4,1.3v25.4
	c0,1.2,0.5,1.8,1.6,1.8H543z M499.7,429.6c-1,0-1.6,0.6-1.6,1.8v2.3c0,1.2,0.5,1.8,1.6,1.8h13.9v21.3c0,1.2,0.5,1.8,1.6,1.8h2.3
	c1,0,1.6-0.6,1.6-1.8v-21.3h13.9c0.5,0,0.9-0.2,1.2-0.5c0.3-0.3,0.4-0.7,0.4-1.3v-2.3c0-1.2-0.5-1.8-1.6-1.8H499.7z M484.6,443.5
	c0-0.5-0.1-1-0.4-1.2c-0.3-0.3-0.7-0.5-1.2-0.5h-11.6c-0.5,0-0.9,0.2-1.2,0.5c-0.3,0.3-0.4,0.7-0.4,1.2v1.9c0,1.1,0.5,1.7,1.6,1.7
	h7.9v4.1c-1.4,0.5-3.1,0.9-4.9,1.1c-1.9,0.3-4.1,0.4-6.4,0.4c-3.6,0-6.5-0.3-8.6-1c-1-0.3-1.9-0.7-2.6-1.2c-0.7-0.5-1.3-1-1.7-1.6
	c-0.4-0.6-0.7-1.3-0.9-2.2c-0.2-0.8-0.3-1.8-0.3-2.8s0.1-2,0.3-2.8c0.2-0.8,0.5-1.5,0.9-2.2c0.4-0.6,1-1.2,1.7-1.6
	c0.7-0.5,1.6-0.9,2.6-1.2c2.1-0.7,5-1,8.6-1c2.5,0,4.7,0.2,6.8,0.5c2.1,0.3,4,0.8,5.7,1.5c0.4,0.2,0.8,0.2,1.2,0.2
	c0.4-0.1,0.7-0.3,0.9-0.6l1.5-1.7c0.2-0.2,0.3-0.4,0.4-0.6c0.1-0.2,0.1-0.4,0.1-0.7c0-0.2-0.1-0.4-0.2-0.6c-0.1-0.2-0.3-0.4-0.5-0.5
	l0,0c-0.6-0.4-1.3-0.8-2.3-1.1c-0.9-0.4-2.1-0.7-3.4-1c-1.3-0.3-2.8-0.5-4.5-0.7c-1.7-0.2-3.5-0.2-5.6-0.2c-3.3,0-6.2,0.3-8.6,0.8
	c-2.5,0.6-4.5,1.4-6.2,2.5c-1.6,1.1-2.9,2.6-3.7,4.5c-0.8,1.8-1.2,4-1.2,6.6c0,2.6,0.4,4.8,1.2,6.6c0.8,1.9,2.1,3.4,3.7,4.5
	c1.6,1.1,3.7,2,6.2,2.5c2.5,0.6,5.3,0.8,8.6,0.8c2.1,0,3.9-0.1,5.6-0.2c1.7-0.2,3.2-0.4,4.5-0.7c1.3-0.3,2.5-0.6,3.4-1
	c1-0.4,1.7-0.7,2.3-1.1c0.3-0.2,0.5-0.4,0.6-0.6c0.1-0.2,0.2-0.5,0.2-0.8V443.5 M441.3,429.6c-0.5,0-0.9,0.2-1.2,0.5
	c-0.3,0.3-0.4,0.7-0.4,1.3v19.5L416,430.3c-0.6-0.5-1.3-0.8-2.2-0.8h-2.3c-1,0-1.6,0.6-1.6,1.8v25.4c0,1.2,0.5,1.8,1.6,1.8h2.3
	c1,0,1.6-0.6,1.6-1.8v-19.6l23.7,20.5c0.6,0.5,1.3,0.8,2.2,0.8h2.3c0.5,0,0.9-0.2,1.2-0.5c0.3-0.3,0.4-0.7,0.4-1.3v-25.4
	c0-1.2-0.5-1.8-1.6-1.8H441.3z M403.4,458.4c0.5,0,0.9-0.2,1.2-0.5c0.3-0.3,0.4-0.7,0.4-1.3v-25.4c0-0.6-0.1-1-0.4-1.3
	c-0.3-0.3-0.7-0.5-1.2-0.5H401c-1,0-1.6,0.6-1.6,1.8v25.4c0,1.2,0.5,1.8,1.6,1.8H403.4z M378.2,452.8c-1.8,0-3.4-0.1-4.9-0.3
	c-1.4-0.2-2.7-0.4-3.7-0.8c-1-0.3-1.9-0.7-2.6-1.2c-0.7-0.5-1.3-1-1.7-1.6c-0.4-0.6-0.7-1.3-0.9-2.2c-0.2-0.8-0.3-1.8-0.3-2.8
	s0.1-2,0.3-2.8c0.2-0.8,0.5-1.5,0.9-2.2c0.4-0.6,1-1.2,1.7-1.6c0.7-0.5,1.6-0.9,2.6-1.2c1-0.3,2.3-0.6,3.7-0.8
	c1.4-0.2,3.1-0.3,4.9-0.3c2.5,0,4.7,0.2,6.8,0.5c2.1,0.3,4,0.8,5.7,1.5c0.4,0.2,0.8,0.2,1.2,0.1c0.4-0.1,0.7-0.3,0.9-0.6l1.5-1.7
	c0.2-0.2,0.3-0.4,0.4-0.6c0.1-0.2,0.1-0.4,0.1-0.7c0-0.2-0.1-0.4-0.2-0.6c-0.1-0.2-0.3-0.4-0.5-0.5c-0.6-0.4-1.3-0.8-2.3-1.2
	c-0.9-0.4-2.1-0.7-3.4-1c-1.3-0.3-2.8-0.6-4.5-0.7c-1.7-0.2-3.6-0.2-5.6-0.2c-3.3,0-6.2,0.3-8.6,0.8c-2.5,0.6-4.5,1.4-6.2,2.5
	c-1.6,1.1-2.9,2.6-3.7,4.5c-0.8,1.8-1.2,4-1.2,6.6c0,2.6,0.4,4.7,1.2,6.6c0.8,1.9,2.1,3.4,3.7,4.5c1.6,1.1,3.7,2,6.2,2.5
	c2.5,0.6,5.3,0.8,8.6,0.8c2,0,3.9-0.1,5.6-0.2c1.7-0.2,3.2-0.4,4.5-0.7c1.3-0.3,2.4-0.6,3.4-1c1-0.4,1.7-0.7,2.3-1.2
	c0.2-0.2,0.4-0.3,0.5-0.5c0.1-0.2,0.2-0.4,0.2-0.6c0-0.2,0-0.5-0.1-0.7c-0.1-0.2-0.2-0.4-0.4-0.6l-1.5-1.7c-0.3-0.3-0.6-0.5-0.9-0.6
	c-0.4-0.1-0.7,0-1.1,0.2c-1.7,0.7-3.5,1.2-5.6,1.5C383,452.7,380.7,452.8,378.2,452.8 M225.4,435.4c0.5,0,0.9-0.2,1.2-0.5
	c0.3-0.3,0.4-0.7,0.4-1.3v-2.3c0-0.6-0.1-1-0.4-1.3c-0.3-0.3-0.7-0.5-1.2-0.5h-29.8c-1,0-1.6,0.6-1.6,1.8v25.4
	c0,1.2,0.5,1.8,1.6,1.8h29.8c0.5,0,0.9-0.2,1.2-0.5c0.3-0.3,0.4-0.7,0.4-1.3v-2.3c0-0.6-0.1-1-0.4-1.3c-0.3-0.3-0.7-0.5-1.2-0.5h-26
	V447h23.9c0.5,0,0.9-0.2,1.2-0.5c0.3-0.3,0.4-0.7,0.4-1.3v-2c0-0.6-0.1-1-0.4-1.3c-0.3-0.3-0.7-0.5-1.2-0.5h-23.9v-6H225.4
	 M187.6,458.4c0.5,0,0.9-0.2,1.2-0.5c0.3-0.3,0.4-0.5,0.4-1l0-25.9c0-0.6-0.1-0.8-0.4-1c-0.3-0.3-0.7-0.5-1.2-0.5h-2.3
	c-1,0-1.6,0.3-1.6,1.5l0,25.9c0,1.2,0.5,1.5,1.6,1.5H187.6z M150.1,437.9c0-2,3.6-2.9,10.7-2.9h0.9c2.4,0,4.6,0.2,6.6,0.6
	c2,0.4,3.9,0.9,5.5,1.7c0.4,0.2,0.8,0.2,1.2,0.2c0.4-0.1,0.7-0.3,1-0.6l1.4-1.6c0.2-0.2,0.3-0.4,0.4-0.6c0.1-0.2,0.1-0.4,0.1-0.7
	c0-0.2-0.1-0.4-0.2-0.6c-0.1-0.2-0.3-0.4-0.5-0.5c-0.6-0.4-1.4-0.8-2.3-1.1c-1-0.4-2.1-0.7-3.5-1.1c-1.3-0.3-2.8-0.6-4.4-0.8
	c-1.6-0.2-3.3-0.3-5.2-0.3h-0.9c-2.7,0-5.1,0.2-7.1,0.5c-2,0.3-3.7,0.8-5.1,1.5c-1.4,0.7-2.4,1.5-3.1,2.6c-0.7,1.1-1.1,2.3-1.1,3.7
	c0,0.5,0,1,0.1,1.5c0.1,0.5,0.2,0.9,0.4,1.3c0.2,0.4,0.5,0.8,0.8,1.2c0.3,0.4,0.7,0.7,1.1,1c0.4,0.3,0.8,0.6,1.3,0.8
	c0.4,0.2,0.9,0.5,1.3,0.7c0.5,0.2,1,0.4,1.6,0.6c0.6,0.2,1.2,0.3,1.9,0.5c0.7,0.1,1.4,0.3,2,0.4c0.7,0.1,1.3,0.2,1.9,0.3
	c1.2,0.2,2.7,0.3,4.5,0.6l0,0c0.2,0,0.4,0,0.8,0.1l0.8,0.1c1.9,0.2,3.5,0.4,4.8,0.6c1.4,0.2,2.6,0.4,3.4,0.7
	c0.8,0.2,1.4,0.5,1.7,0.8c0.3,0.3,0.5,0.7,0.5,1.2c0,0.3-0.1,0.5-0.2,0.7c-0.2,0.3-0.4,0.5-0.7,0.7c-0.3,0.2-0.8,0.5-1.4,0.6
	c-0.6,0.2-1.4,0.4-2.3,0.5c-0.9,0.2-1.9,0.3-3.1,0.4c-1.1,0.1-2.4,0.1-3.8,0.1h-0.4c-2.8,0-5.4-0.2-7.6-0.6
	c-2.2-0.4-4.1-0.9-5.7-1.7c-0.4-0.2-0.8-0.2-1.1-0.2c-0.4,0.1-0.7,0.3-1,0.6l-1.5,1.6c-0.2,0.2-0.3,0.4-0.4,0.6
	c-0.1,0.2-0.1,0.4-0.1,0.7c0,0.2,0.1,0.4,0.2,0.6c0.1,0.2,0.3,0.4,0.5,0.5c0.6,0.4,1.4,0.8,2.4,1.1c1,0.4,2.2,0.7,3.7,1.1
	c1.4,0.3,3,0.6,4.8,0.8c1.8,0.2,3.7,0.3,5.7,0.3h0.4c11.4,0,17.1-2.9,17.1-8.8c0-1.5-0.5-2.8-1.6-3.9c-1-1.1-2.6-1.9-4.7-2.6
	c-1.1-0.3-2.5-0.7-4.4-1c-1.9-0.3-4.2-0.6-6.9-1c-2-0.2-3.7-0.4-5-0.6c-1.3-0.2-2.3-0.3-2.9-0.5c-1.3-0.3-2.2-0.6-2.8-1
	C150.4,438.7,150.1,438.3,150.1,437.9 M123.2,452.9c2.4,0,4.4-0.2,6.1-0.6c1.7-0.4,3-0.9,4-1.6c1-0.7,1.7-1.6,2.2-2.7
	c0.5-1.1,0.7-2.4,0.7-4c0-1.5-0.3-2.8-0.7-4c-0.5-1.1-1.2-2-2.2-2.7c-1-0.7-2.3-1.3-4-1.6c-1.7-0.4-3.7-0.6-6.1-0.6h-2
	c-2.4,0-4.4,0.2-6.1,0.6c-1.7,0.4-3,0.9-4,1.6c-1,0.7-1.7,1.6-2.2,2.7c-0.5,1.1-0.7,2.4-0.7,4c0,1.5,0.2,2.8,0.7,4
	c0.5,1.1,1.2,2,2.2,2.7c1,0.7,2.3,1.3,4,1.6c1.7,0.4,3.7,0.6,6.1,0.6H123.2z M123.2,429.6c3,0,5.7,0.3,8,0.8
	c2.3,0.6,4.3,1.4,5.8,2.6c1.6,1.2,2.8,2.7,3.6,4.5c0.8,1.8,1.2,4,1.2,6.5c0,2.5-0.4,4.7-1.2,6.5c-0.8,1.8-2,3.3-3.6,4.5
	c-1.6,1.1-3.5,2-5.8,2.6c-2.3,0.6-5,0.8-8,0.8h-2c-3,0-5.7-0.3-8-0.8c-2.3-0.6-4.3-1.4-5.8-2.6c-1.6-1.2-2.8-2.7-3.6-4.5
	c-0.8-1.8-1.2-4-1.2-6.5c0-2.5,0.4-4.7,1.2-6.5c0.8-1.8,2-3.3,3.6-4.5c1.6-1.1,3.5-2,5.8-2.6c2.3-0.6,5-0.8,8-0.8H123.2z
	 M80.8,452.9c2.4,0,4.4-0.2,6.1-0.6c1.7-0.4,3-0.9,4-1.6c1-0.7,1.7-1.6,2.2-2.7c0.5-1.1,0.7-2.4,0.7-4c0-1.5-0.3-2.8-0.7-4
	c-0.5-1.1-1.2-2-2.2-2.7c-1-0.7-2.3-1.3-4-1.6c-1.7-0.4-3.7-0.6-6.1-0.6h-2c-4.7,0-8,0.7-10,2.2c-1,0.7-1.7,1.6-2.2,2.7
	c-0.5,1.1-0.7,2.4-0.7,4c0,1.5,0.3,2.8,0.7,4c0.5,1.1,1.2,2,2.2,2.7c1,0.7,2.3,1.3,4,1.6c1.7,0.4,3.7,0.6,6.1,0.6H80.8z M80.8,429.6
	c3,0,5.7,0.3,8,0.8c2.3,0.6,4.3,1.4,5.8,2.6c1.6,1.2,2.8,2.7,3.6,4.5c0.8,1.8,1.2,4,1.2,6.5c0,2.5-0.4,4.7-1.2,6.5
	c-0.8,1.8-2,3.3-3.6,4.5c-1.6,1.1-3.5,2-5.8,2.6c-2.3,0.6-5,0.8-8,0.8h-2c-3,0-5.7-0.3-8-0.8c-2.3-0.6-4.3-1.4-5.8-2.6
	c-1.6-1.2-2.8-2.7-3.6-4.5c-0.8-1.8-1.2-4-1.2-6.5c0-2.5,0.4-4.7,1.2-6.5c0.8-1.8,2-3.3,3.6-4.5c1.6-1.1,3.5-2,5.8-2.6
	c2.3-0.6,5-0.8,8-0.8H80.8z M52.9,429.6c-1,0-1.6,0.6-1.6,1.8v10.4H27.1v-10.4c0-0.6-0.1-1-0.4-1.3c-0.3-0.3-0.7-0.5-1.2-0.5h-2.3
	c-1,0-1.6,0.6-1.6,1.8v25.4c0,1.2,0.5,1.8,1.6,1.8h2.3c0.5,0,0.9-0.2,1.2-0.5c0.3-0.3,0.4-0.7,0.4-1.3v-9.2h24.2v9.2
	c0,1.2,0.5,1.8,1.6,1.8h2.3c0.5,0,0.9-0.2,1.2-0.5c0.3-0.3,0.4-0.7,0.4-1.3v-25.4c0-0.6-0.1-1-0.4-1.3c-0.3-0.3-0.7-0.5-1.2-0.5
	H52.9z M265.8,456.1c0.3,0.2,0.4,0.5,0.5,0.7c0.1,0.3,0.1,0.5,0.1,0.8c-0.1,0.3-0.3,0.5-0.5,0.6c-0.2,0.1-0.5,0.2-0.9,0.2h-3.3
	c-0.4,0-0.7-0.1-1-0.2c-0.3-0.1-0.6-0.3-0.8-0.5l-8.4-8.3h-15v7.3c0,0.6-0.1,1-0.4,1.3c-0.3,0.3-0.7,0.5-1.2,0.5h-2.3
	c-1,0-1.6-0.6-1.6-1.8v-25.4c0-0.6,0.1-1,0.4-1.3c0.3-0.3,0.7-0.5,1.2-0.5h23.1c0.9,0,1.8,0.1,2.6,0.2c0.8,0.1,1.6,0.4,2.3,0.6
	c0.7,0.3,1.3,0.6,1.9,1c0.5,0.4,1,0.8,1.4,1.3c0.4,0.5,0.7,1,1,1.5c0.3,0.5,0.5,1.1,0.7,1.6c0.2,0.6,0.3,1.1,0.4,1.7
	c0.1,0.6,0.1,1.2,0.1,1.8c0,1.2-0.2,2.4-0.5,3.4c-0.3,1.1-0.8,2.1-1.5,3c-0.7,0.9-1.6,1.7-2.6,2.2c-0.9,0.5-1.9,0.8-3.1,1
	L265.8,456.1z M236.6,435.4v8.5h19.2c0.9,0,1.6-0.1,2.2-0.3c0.6-0.2,1.1-0.4,1.5-0.8c0.4-0.3,0.7-0.8,0.9-1.3c0.2-0.6,0.3-1.2,0.3-2
	c0-0.8-0.1-1.4-0.3-1.9c-0.2-0.5-0.5-0.9-0.9-1.2c-0.4-0.3-0.9-0.5-1.5-0.7c-0.6-0.2-1.4-0.2-2.3-0.2H236.6z M358.5,456.2
	c0.2,0.3,0.3,0.5,0.3,0.8c0.1,0.3,0,0.5-0.1,0.8c-0.1,0.2-0.3,0.4-0.5,0.5c-0.2,0.1-0.5,0.2-0.8,0.2h-3.1c-0.4,0-0.7-0.1-1-0.3
	c-0.3-0.2-0.5-0.4-0.8-0.8l-3.2-4.9h-21.3l-3.2,4.9c-0.2,0.3-0.5,0.6-0.8,0.8c-0.3,0.2-0.6,0.3-1,0.3h-3.1c-0.3,0-0.6-0.1-0.8-0.2
	c-0.2-0.1-0.4-0.3-0.5-0.5c-0.1-0.2-0.1-0.5-0.1-0.8c0-0.2,0.2-0.5,0.3-0.8l16.7-25.6c0.2-0.3,0.5-0.6,0.8-0.8
	c0.3-0.2,0.7-0.3,1-0.3h2.3c0.4,0,0.7,0.1,1,0.3c0.3,0.2,0.6,0.4,0.8,0.8L358.5,456.2z M345.9,448.1h0.7l-7.8-12
	c-2.8,4.4-5,7.6-7.8,12H345.9z"/>
</svg>
