<?xml version="1.0" encoding="UTF-8"?>
<svg version="1.1" xmlns="http://www.w3.org/2000/svg" width="993" height="415">
<path d="M0 0 C1.92292772 0.00084762 3.84585641 0.0003685 5.76878357 -0.00132751 C10.9560105 -0.00218363 16.14302673 0.01537971 21.33020496 0.03639436 C26.76339953 0.05522543 32.19659961 0.05691665 37.62982178 0.06047058 C47.90364053 0.06977222 58.17736282 0.09436043 68.45113921 0.12451905 C80.15372053 0.15812178 91.8563066 0.17456381 103.5589242 0.18960536 C127.61843771 0.22091173 151.67786578 0.27363546 175.73730469 0.34057617 C176.06730469 1.00057617 176.39730469 1.66057617 176.73730469 2.34057617 C175.9362793 4.56445313 175.9362793 4.56445313 174.63964844 7.32885742 C174.16720703 8.34657227 173.69476562 9.36428711 173.20800781 10.4128418 C172.70205078 11.48211914 172.19609375 12.55139648 171.67480469 13.65307617 C170.95647461 15.19318359 170.95647461 15.19318359 170.22363281 16.7644043 C169.27183146 18.80434267 168.31712622 20.8429294 167.3591156 22.87995911 C165.74281523 26.32881779 164.14272306 29.78472513 162.5480957 33.24365234 C162.01853775 34.39202072 161.4889798 35.5403891 160.94337463 36.72355652 C160.54537155 37.587173 160.14736847 38.45078949 159.73730469 39.34057617 C159.00991592 39.34296453 158.28252716 39.34535288 157.53309631 39.34781361 C139.76880128 39.40715544 122.00464292 39.48282665 104.24049377 39.57629108 C95.64959954 39.62110452 87.05874543 39.66055179 78.46777344 39.68701172 C70.97292744 39.71010962 63.47820996 39.74363719 55.98346615 39.78927773 C52.02135809 39.81305236 48.05937605 39.83188362 44.09719849 39.83819008 C40.35426352 39.84431329 36.61165036 39.86456737 32.86883545 39.89485168 C30.86808032 39.90759414 28.86724955 39.90608196 26.86645508 39.90385437 C14.98110873 40.02465224 0.07787833 40.88773758 -10.26269531 47.34057617 C-13.8127318 51.28660137 -16.00792843 55.49553057 -18.26660156 60.23901367 C-18.63115952 60.99219879 -18.99571747 61.74538391 -19.37132263 62.52139282 C-20.52860853 64.91661647 -21.67681905 67.31607039 -22.82519531 69.71557617 C-23.60003419 71.32000942 -24.37541969 72.92417879 -25.15136719 74.52807617 C-25.8986051 76.07731759 -26.64536566 77.62678936 -27.39160156 79.17651367 C-27.73542374 79.89028168 -28.07924591 80.60404968 -28.43348694 81.33944702 C-33.39427627 90.87765798 -33.39427627 90.87765798 -34.26269531 101.34057617 C-32.46707126 104.09386638 -31.21014609 105.86685078 -28.26269531 107.34057617 C-25.69407064 107.56638933 -23.14981238 107.72488969 -20.57519531 107.84057617 C-19.7236084 107.88045654 -18.87202148 107.92033691 -17.99462891 107.96142578 C-2.56290205 108.63333852 12.8821671 108.98118892 28.32470703 109.29052734 C30.6485575 109.33873513 32.97220905 109.39262395 35.29589844 109.44799805 C39.40123372 109.54339432 43.50618733 109.60122735 47.61230469 109.65307617 C48.81612793 109.68280518 50.01995117 109.71253418 51.26025391 109.74316406 C60.27312593 109.80452445 67.30553677 108.04937687 74.17480469 101.96557617 C74.81289063 101.4215918 75.45097656 100.87760742 76.10839844 100.31713867 C78.14935419 97.84058325 78.78770933 95.38165595 79.73730469 92.34057617 C78.94962708 92.34279678 78.16194946 92.3450174 77.35040283 92.3473053 C69.87834012 92.36745442 62.40629084 92.38262421 54.93420792 92.39238834 C51.09398476 92.39757713 47.25378431 92.40460081 43.41357422 92.41601562 C39.69826794 92.42698836 35.9829833 92.43288305 32.26766205 92.43545341 C30.85970469 92.43728202 29.45174833 92.44085191 28.04380035 92.44630623 C19.55145029 92.47785641 11.18720725 92.21364368 2.73730469 91.34057617 C3.42818406 87.57969823 4.40994148 84.68106244 6.20605469 81.29370117 C6.69460938 80.36686523 7.18316406 79.4400293 7.68652344 78.48510742 C8.19828125 77.52991211 8.71003906 76.5747168 9.23730469 75.59057617 C9.7490625 74.61991211 10.26082031 73.64924805 10.78808594 72.64916992 C14.57738095 65.50049991 14.57738095 65.50049991 15.73730469 64.34057617 C17.44099972 64.24218267 19.14879762 64.21425591 20.85533142 64.21359253 C22.51906044 64.20936279 22.51906044 64.20936279 24.21640015 64.20504761 C26.05774033 64.20808395 26.05774033 64.20808395 27.9362793 64.21118164 C29.22068405 64.20942932 30.50508881 64.207677 31.82841492 64.20587158 C35.36144469 64.20129735 38.89444539 64.20308688 42.42747569 64.20625067 C46.11811959 64.20877486 49.80876092 64.20643651 53.49940491 64.2048645 C59.69939625 64.20304275 65.8993757 64.20544901 72.09936523 64.21020508 C79.27423428 64.21564532 86.44907491 64.2138868 93.62394327 64.20837867 C99.77511398 64.20384484 105.92627611 64.2031984 112.07744795 64.20581734 C115.75515271 64.20737893 119.43284411 64.20757715 123.11054802 64.20428085 C127.21002773 64.20086354 131.30945823 64.20559632 135.40893555 64.21118164 C137.24723938 64.20814529 137.24723938 64.20814529 139.12268066 64.20504761 C140.79063942 64.20927734 140.79063942 64.20927734 142.49229431 64.21359253 C143.4625653 64.21396955 144.43283628 64.21434658 145.43250942 64.21473503 C147.73730469 64.34057617 147.73730469 64.34057617 149.73730469 65.34057617 C149.08701546 69.70813628 147.48829342 73.44521665 145.63964844 77.41479492 C145.32967926 78.09201599 145.01971008 78.76923706 144.7003479 79.46697998 C143.69700357 81.65643058 142.68630434 83.84238267 141.67480469 86.02807617 C140.29531729 89.02200321 138.91837421 92.01709545 137.54199219 95.01245117 C137.20589432 95.74253891 136.86979645 96.47262665 136.52351379 97.22483826 C134.34205986 101.97726616 132.25705346 106.76191409 130.23022461 111.58251953 C122.57296955 129.65171258 109.52669649 139.91326169 91.73730469 147.34057617 C81.11130518 151.08797008 69.59625292 150.47679407 58.47875977 150.40991211 C56.97289667 150.40466754 55.46703206 150.39984248 53.96116638 150.395401 C49.90352338 150.38186225 45.84594545 150.36141734 41.78834367 150.33883572 C39.2486112 150.32490606 36.70887545 150.31229137 34.16913414 150.30008698 C25.29639109 150.25716606 16.42370557 150.20789028 7.55102539 150.15356445 C-0.70203254 150.10323009 -8.95506478 150.06806254 -17.20822448 150.03963065 C-24.3143165 150.01439074 -31.42029329 149.97778195 -38.52628595 149.93254495 C-42.76183373 149.90581568 -46.99727816 149.883781 -51.23290062 149.87352753 C-55.21317106 149.8635606 -59.19311067 149.83942573 -63.17323875 149.80459404 C-64.62922457 149.79424335 -66.08525624 149.7888854 -67.54127884 149.78902626 C-77.39621903 149.78608248 -85.59527451 149.14969738 -93.65722656 142.96948242 C-98.81574858 137.73565352 -101.11785051 130.66918789 -101.34667969 123.43579102 C-100.99052941 110.30999684 -95.33494332 98.98534434 -89.88769531 87.34057617 C-88.66605634 84.68844998 -87.44949126 82.03403533 -86.23326111 79.37942505 C-85.41814628 77.60093545 -84.60146936 75.82316095 -83.78321838 74.04611206 C-79.49494728 64.71956503 -75.43666382 55.29863717 -71.41162109 45.85620117 C-63.26326765 26.84246165 -54.21484835 13.6594866 -34.96191406 4.69995117 C-23.17648288 0.36908522 -12.39300214 -0.07695992 0 0 Z " fill="#FFFFFF" transform="translate(667.2626953125,109.659423828125)"/>
<path d="M0 0 C1.81440728 0.00056504 3.62881503 0.00024575 5.44322205 -0.00088501 C10.3391494 -0.00145592 15.2349776 0.01025579 20.13088202 0.02426291 C25.25845819 0.03681412 30.38603694 0.03794421 35.5136261 0.04031372 C45.2101734 0.04651563 54.90667529 0.06290892 64.60320264 0.0830127 C75.64798125 0.10541193 86.69276208 0.11637523 97.73755777 0.12640357 C120.4452622 0.14727634 143.1529264 0.18242714 165.8605957 0.22705078 C164.5838554 3.10003129 163.3070684 5.97299105 162.03027344 8.84594727 C161.49205082 10.05708317 161.49205082 10.05708317 160.94295502 11.29268646 C158.2756729 17.2943334 155.60797092 23.29574826 152.9230957 29.28955078 C152.53831055 30.15386719 152.15352539 31.01818359 151.75708008 31.90869141 C151.3903418 32.72660156 151.02360352 33.54451172 150.64575195 34.38720703 C150.32485596 35.10529541 150.00395996 35.82338379 149.67333984 36.56323242 C148.8605957 38.22705078 148.8605957 38.22705078 147.8605957 39.22705078 C145.86043992 39.32727832 143.85669862 39.35614893 141.85403442 39.35835266 C140.54753433 39.36236084 139.24103424 39.36636902 137.89494324 39.37049866 C136.43313597 39.37002348 134.97132871 39.36948736 133.50952148 39.36889648 C131.98044229 39.37192646 130.45136401 39.37544746 128.92228699 39.37942505 C125.61996484 39.38733067 122.31765358 39.39246537 119.01532364 39.39571571 C113.78662045 39.40161914 108.55798561 39.41815605 103.32931519 39.4370575 C101.53948407 39.44339567 99.74965291 39.44972128 97.9598217 39.45603466 C96.61482302 39.46078338 96.61482302 39.46078338 95.24265265 39.46562803 C83.06615913 39.50768885 70.88969602 39.54064397 58.71313477 39.55297852 C50.50636353 39.56137732 42.29976008 39.58394104 34.09307277 39.62233418 C29.75158784 39.64204514 25.41035346 39.65451626 21.06882095 39.64949989 C16.97619566 39.64482941 12.88404346 39.65878868 8.79151344 39.68651199 C7.29647055 39.6933855 5.80137833 39.69359208 4.30633736 39.68631172 C-5.12285694 39.64506568 -14.9360823 39.72495132 -22.42594719 46.2054491 C-24.38405163 48.11322433 -24.38405163 48.11322433 -24.3269043 50.78955078 C-22.84220761 53.83708608 -21.16941334 54.3887632 -18.10176659 55.6125946 C-15.02787054 56.57509497 -12.12017211 56.6612051 -8.91015625 56.72119141 C-8.22435423 56.73779816 -7.53855221 56.75440491 -6.83196831 56.77151489 C-4.57641957 56.82252499 -2.32110127 56.85311579 -0.06518555 56.88330078 C1.53824565 56.91502567 3.14165477 56.94788496 4.74504089 56.98181152 C8.94619542 57.0664409 13.14740618 57.13248287 17.34899139 57.19152832 C19.79237518 57.22608592 22.23569291 57.26366225 24.67901611 57.30224609 C37.29143506 57.49932006 49.90437545 57.64330633 62.51757812 57.77929688 C66.48841021 57.82238378 70.45917906 57.86953193 74.42993736 57.91893005 C76.60478588 57.94475762 78.77964438 57.9659564 80.95454407 57.98693848 C113.6474979 58.35630398 113.6474979 58.35630398 124.29418945 68.50830078 C126.32506481 70.73669269 127.34870867 72.22885529 127.8605957 75.22705078 C126.24812449 93.74060915 117.24553492 113.43672839 104.8605957 127.22705078 C104.36688477 127.82388672 103.87317383 128.42072266 103.36450195 129.03564453 C93.39707328 140.19618188 74.40532082 148.50939251 59.69921684 149.42357254 C55.77914496 149.51304983 51.86126594 149.54033748 47.94042969 149.54589844 C46.43291189 149.55521067 44.92539919 149.56538125 43.41789246 149.57633972 C39.33378116 149.60358266 35.24970435 149.61878473 31.16552615 149.63176775 C26.85584104 149.64750783 22.54622387 149.67428783 18.23658752 149.69979858 C10.04668158 149.74658714 1.85676214 149.78329293 -6.33320898 149.81647146 C-15.53141437 149.85426927 -24.72954271 149.90399387 -33.92768586 149.95445561 C-64.66501346 150.12189654 -95.40156104 150.25917883 -126.1394043 150.22705078 C-125.67255575 148.8048777 -125.20380936 147.38332754 -124.73428345 145.96203613 C-124.47345789 145.17034279 -124.21263233 144.37864944 -123.94390297 143.56296539 C-122.79783115 140.23527077 -121.44022946 137.05022756 -120.0378418 133.82080078 C-119.75590973 133.17002563 -119.47397766 132.51925049 -119.1835022 131.84875488 C-118.5954269 130.49359382 -118.00552268 129.13922499 -117.41381836 127.78564453 C-116.50505894 125.70566098 -115.60309516 123.62282316 -114.7019043 121.53955078 C-110.28056507 111.36821155 -110.28056507 111.36821155 -109.1394043 110.22705078 C-107.09008351 110.12455965 -105.03718299 110.09349799 -102.98530579 110.08901978 C-102.33531638 110.0861985 -101.68532697 110.08337722 -101.01564091 110.08047044 C-98.82161336 110.07208875 -96.62763604 110.07078314 -94.43359375 110.06933594 C-92.86684526 110.06467022 -91.30009813 110.05952706 -89.73335266 110.05393982 C-86.35080911 110.04263782 -82.96827448 110.03421372 -79.58571815 110.02782059 C-74.23657045 110.01716134 -68.88748648 109.99692109 -63.53837585 109.97470093 C-48.32444179 109.91271008 -33.1105107 109.85878298 -17.89648438 109.82568359 C-9.50044089 109.80733675 -1.10450336 109.77839743 7.29146224 109.73767889 C11.73614615 109.71660485 16.18069647 109.70115111 20.62543297 109.69887161 C24.80908014 109.69672366 28.99244949 109.68083937 33.17601204 109.65448189 C34.71024417 109.64729222 36.24450998 109.64518632 37.77875519 109.64858437 C39.87669078 109.65248801 41.97374294 109.63799707 44.07157898 109.61904907 C45.24464442 109.61573893 46.41770987 109.61242878 47.62632275 109.60901833 C53.17054597 108.95424572 57.04310808 106.56896099 60.6730957 102.41455078 C61.25704102 101.76873047 61.84098633 101.12291016 62.44262695 100.45751953 C64.17235077 97.7366592 64.40563703 95.39070108 64.8605957 92.22705078 C64.18013687 92.21674332 63.49967804 92.20643585 62.79859924 92.19581604 C4.86937178 91.316276 4.86937178 91.316276 -22.21536255 90.78634644 C-24.21214898 90.74751431 -26.20895463 90.70965584 -28.20578003 90.67288208 C-33.62950807 90.57225708 -39.0519776 90.45094818 -44.4744873 90.29785156 C-46.30692266 90.24916792 -48.13955568 90.20757095 -49.97229004 90.171875 C-52.7970255 90.11474902 -55.62013553 90.03277357 -58.4440918 89.94580078 C-59.28618195 89.93359497 -60.12827209 89.92138916 -60.99588013 89.90881348 C-67.46743408 89.67019056 -73.76063509 88.21663595 -78.73410034 83.81604004 C-85.03621383 76.65184567 -84.90894803 68.53909251 -84.38208008 59.52001953 C-83.25118396 48.83453021 -78.40477378 38.44144738 -73.1394043 29.22705078 C-72.76299805 28.56318359 -72.3865918 27.89931641 -71.9987793 27.21533203 C-63.24358797 13.4968104 -44.35508095 5.80512608 -29.1394043 2.22705078 C-28.44765201 2.05988115 -27.75589972 1.89271152 -27.04318523 1.72047615 C-18.06360228 -0.19346741 -9.12718128 -0.04001682 0 0 Z " fill="#FFFFFF" transform="translate(432.139404296875,107.77294921875)"/>
<path d="M0 0 C1.86396267 0.00084789 3.72792634 0.00036798 5.59188843 -0.00132751 C10.61377523 -0.00218259 15.63544379 0.01536357 20.65728021 0.03639436 C25.9196359 0.05524309 31.18199747 0.05691803 36.44438171 0.06047058 C46.39234185 0.06976708 56.3402022 0.09434823 66.28811854 0.12451905 C77.62071752 0.1581379 88.95332144 0.17456784 100.28595793 0.18960536 C123.58221396 0.22090007 146.87838165 0.27361366 170.17456055 0.34057617 C168.65509746 5.02143676 166.83389522 9.44576913 164.7331543 13.89135742 C164.24154564 14.94047554 164.24154564 14.94047554 163.74000549 16.01078796 C163.05157628 17.47799523 162.36152237 18.94444117 161.66992188 20.41015625 C160.60799557 22.6616949 159.55204983 24.91596778 158.49682617 27.1706543 C157.82595225 28.59855318 157.15474036 30.02629334 156.4831543 31.45385742 C156.166483 32.12983475 155.84981171 32.80581207 155.52354431 33.50227356 C153.2901321 38.22500462 153.2901321 38.22500462 152.17456055 39.34057617 C150.27538531 39.42839851 148.37288462 39.44464688 146.47171021 39.43391418 C145.23252335 39.42950821 143.99333649 39.42510223 142.71659851 39.42056274 C141.33035236 39.41064239 139.94410665 39.40066107 138.55786133 39.390625 C137.10760209 39.38379907 135.65734045 39.37746809 134.20707703 39.37159729 C131.07498529 39.35823265 127.94292409 39.34208404 124.81085587 39.32404518 C119.8510438 39.29625165 114.89123221 39.27921363 109.93136597 39.26457214 C108.23339268 39.2594275 106.53541943 39.25427088 104.83744621 39.24910259 C103.9867914 39.24651703 103.13613658 39.24393147 102.25970435 39.24126756 C90.70943676 39.20523576 79.15926578 39.16007229 67.60913086 39.09375 C59.82435586 39.04913524 52.03966584 39.01895626 44.25477397 39.00489253 C40.13677419 38.99684422 36.01909832 38.98144294 31.90121841 38.94822121 C28.01881238 38.91696061 24.13679382 38.90470581 20.25426674 38.90643883 C18.83657985 38.90376231 17.41888524 38.89430815 16.0012989 38.87721252 C3.8026522 38.73660411 -6.75686812 40.70729626 -15.82543945 49.34057617 C-29.84096272 63.96991798 -40.64243011 84.12892067 -42.82543945 104.34057617 C-42.19637695 104.47463867 -41.56731445 104.60870117 -40.91918945 104.74682617 C-38.43601984 105.4510086 -37.62222641 106.54378921 -35.82543945 108.34057617 C-31.95056612 109.74507641 -27.82953943 109.5512213 -23.7590332 109.62182617 C-22.90107147 109.63991837 -22.04310974 109.65801056 -21.15914917 109.676651 C-18.19382568 109.73676437 -15.22842265 109.78897348 -12.26293945 109.84057617 C-10.7059584 109.86992752 -10.7059584 109.86992752 -9.11752319 109.89987183 C33.30754535 110.69470889 75.74429625 110.95252165 118.17456055 111.34057617 C117.70337892 112.77816949 117.23011626 114.21508085 116.75598145 115.65170288 C116.4926577 116.45195578 116.22933395 117.25220867 115.9580307 118.07671165 C115.00922204 120.81832759 113.8541171 123.3987908 112.58081055 126.00463867 C111.87118164 127.47030273 111.87118164 127.47030273 111.1472168 128.96557617 C110.66124023 129.95557617 110.17526367 130.94557617 109.67456055 131.96557617 C108.70451319 133.95713228 107.73573102 135.94930521 106.76831055 137.94213867 C106.34227539 138.81177246 105.91624023 139.68140625 105.47729492 140.57739258 C103.95905362 143.79768025 102.57075164 147.06578659 101.17456055 150.34057617 C78.19077193 150.38737701 55.20699122 150.42260456 32.22316456 150.44420052 C21.55045284 150.45449613 10.87777079 150.46852358 0.20507812 150.49145508 C-9.10142246 150.51144156 -18.40790155 150.52430506 -27.714423 150.52875316 C-32.63833391 150.53135165 -37.56218332 150.53742329 -42.48607445 150.55203629 C-47.12926655 150.5657034 -51.77237235 150.56978052 -56.41558266 150.56679153 C-58.11137487 150.56733764 -59.80717025 150.57126033 -61.50294495 150.57898712 C-91.60348722 150.70930694 -91.60348722 150.70930694 -101.48168945 141.85620117 C-106.08368209 136.66558157 -107.10360005 131.94682036 -107.07543945 125.15307617 C-107.0805957 123.92202148 -107.08575195 122.6909668 -107.09106445 121.42260742 C-106.56936519 110.89587572 -102.83014885 102.51869326 -98.15158081 93.22723389 C-96.20191709 89.35466069 -94.29062586 85.4631214 -92.37231445 81.57495117 C-91.98546982 80.79380951 -91.59862518 80.01266785 -91.20005798 79.20785522 C-87.6023242 71.93083542 -84.16017322 64.58789475 -80.76293945 57.21557617 C-80.23595459 56.07741455 -79.70896973 54.93925293 -79.16601562 53.76660156 C-76.8956736 48.85723568 -74.6418268 43.94145192 -72.4230957 39.00854492 C-72.0628833 38.21786621 -71.7026709 37.4271875 -71.33154297 36.61254883 C-70.69359683 35.21157513 -70.06411303 33.80669168 -69.44628906 32.39672852 C-67.52604598 28.20335092 -65.20806373 25.44438383 -61.82543945 22.34057617 C-61.20282227 21.67155273 -60.58020508 21.0025293 -59.9387207 20.31323242 C-44.02035022 3.42801948 -22.11736198 -0.14212356 0 0 Z " fill="#FFFFFF" transform="translate(175.825439453125,105.659423828125)"/>
<path d="M0 0 C1.22125328 -0.00945648 1.22125328 -0.00945648 2.46717834 -0.019104 C3.34224533 -0.01505554 4.21731232 -0.01100708 5.11889648 -0.00683594 C6.01994614 -0.00874939 6.92099579 -0.01066284 7.84934998 -0.01263428 C9.75324788 -0.0139949 11.65715509 -0.010307 13.56103516 -0.00195312 C16.48222573 0.00876059 19.40280304 -0.00185893 22.32397461 -0.01464844 C24.17228326 -0.01332707 26.02059153 -0.01076514 27.86889648 -0.00683594 C28.7459877 -0.0108844 29.62307892 -0.01493286 30.52674866 -0.019104 C36.69756512 0.02886395 36.69756512 0.02886395 38.92749023 2.25878906 C39.26082357 7.5921224 39.26082357 7.5921224 37.92749023 10.25878906 C33.63749023 10.25878906 29.34749023 10.25878906 24.92749023 10.25878906 C24.92749023 9.59878906 24.92749023 8.93878906 24.92749023 8.25878906 C21.03036729 8.28163689 17.13616087 8.35901126 13.23999023 8.44628906 C11.58580078 8.45499023 11.58580078 8.45499023 9.89819336 8.46386719 C3.4173594 8.60872948 3.4173594 8.60872948 -2.27954102 11.43457031 C-4.52421098 14.56471037 -4.52421098 14.56471037 -5.07250977 20.25878906 C2.84749023 20.25878906 10.76749023 20.25878906 18.92749023 20.25878906 C15.29749023 19.92878906 11.66749023 19.59878906 7.92749023 19.25878906 C7.92749023 16.94878906 7.92749023 14.63878906 7.92749023 12.25878906 C16.83749023 12.25878906 25.74749023 12.25878906 34.92749023 12.25878906 C34.92749023 19.06735329 34.92749023 19.06735329 32.23999023 22.94628906 C31.74112305 23.69265625 31.24225586 24.43902344 30.72827148 25.20800781 C28.2479266 28.03269558 25.86535722 29.97055522 22.03996277 30.53953552 C19.77711347 30.65503439 17.53307936 30.67458066 15.26733398 30.65722656 C14.44044571 30.66009674 13.61355743 30.66296692 12.76161194 30.66592407 C11.01929029 30.66795958 9.27694551 30.66246568 7.53466797 30.64990234 C4.87016733 30.63382031 2.20717874 30.64977835 -0.45727539 30.66894531 C-2.15324227 30.66696319 -3.84920822 30.66312015 -5.54516602 30.65722656 C-6.34003922 30.66329926 -7.13491241 30.66937195 -7.95387268 30.67562866 C-11.21291008 30.6342246 -13.65501205 30.47810308 -16.56640625 28.94873047 C-18.59117127 26.67681874 -18.74128811 24.69685588 -18.59204102 21.71191406 C-16.72862777 12.91324098 -10.30713598 0.02291651 0 0 Z " fill="#FFFFFF" transform="translate(746.072509765625,284.7412109375)"/>
<path d="M0 0 C6.05102627 0.06884811 12.10135963 0.15680147 18.15185547 0.26245117 C20.21004553 0.29570011 22.26832676 0.32373214 24.32666016 0.34643555 C27.28587691 0.3799819 30.24425817 0.43229802 33.203125 0.48828125 C34.12305237 0.49467117 35.04297974 0.5010611 35.99078369 0.50764465 C42.34799975 0.65386494 42.34799975 0.65386494 45.56933594 2.36401367 C47 4 47 4 47.6875 6.6875 C46.66888887 11.5953536 43.68428691 14.69439783 40 18 C39.01 18.33 38.02 18.66 37 19 C37.01160156 19.69867188 37.02320313 20.39734375 37.03515625 21.1171875 C37.04417969 22.02726562 37.05320312 22.93734375 37.0625 23.875 C37.07410156 24.77992188 37.08570313 25.68484375 37.09765625 26.6171875 C37 29 37 29 36 31 C32.04 31 28.08 31 24 31 C24 28.69 24 26.38 24 24 C16.41 24.33 8.82 24.66 1 25 C0.01 26.98 -0.98 28.96 -2 31 C-5.96 31 -9.92 31 -14 31 C-12.48260233 27.20650584 -10.89443546 23.52734467 -9.1796875 19.82421875 C-8.64472656 18.66728516 -8.10976563 17.51035156 -7.55859375 16.31835938 C-6.99742368 15.10806 -6.43622541 13.89777371 -5.875 12.6875 C-5.30587207 11.45773667 -4.73686048 10.22791949 -4.16796875 8.99804688 C-2.7797888 5.99816648 -1.39042601 2.99883985 0 0 Z M8 10 C7.34 11.32 6.68 12.64 6 14 C10.29154022 14.0867562 14.58285668 14.1403089 18.875 14.1875 C20.09832031 14.21263672 21.32164062 14.23777344 22.58203125 14.26367188 C23.74863281 14.27333984 24.91523438 14.28300781 26.1171875 14.29296875 C27.19597168 14.3086792 28.27475586 14.32438965 29.38623047 14.34057617 C30.24877441 14.22818604 31.11131836 14.1157959 32 14 C32.66 13.01 33.32 12.02 34 11 C30.86149936 10.07446257 28.06319222 9.88335353 24.796875 9.90234375 C23.8171875 9.90556641 22.8375 9.90878906 21.828125 9.91210938 C20.81234375 9.92048828 19.7965625 9.92886719 18.75 9.9375 C17.71875 9.94201172 16.6875 9.94652344 15.625 9.95117188 C13.08327427 9.96293912 10.54166681 9.97937989 8 10 Z " fill="#FFFFFF" transform="translate(485,282)"/>
<path d="M0 0 C13.0152336 -1.93246489 13.0152336 -1.93246489 17.87109375 1.21142578 C21.28178832 4.26538954 24.07394629 7.78873934 26.80273438 11.45117188 C28.36957221 13.4780926 30.13926367 15.24360402 32 17 C32.79556657 15.29347935 33.5862638 13.5846883 34.375 11.875 C34.81585937 10.92367188 35.25671875 9.97234375 35.7109375 8.9921875 C36.97371399 6.06101542 37.99072431 3.02782708 39 0 C43.29 0 47.58 0 52 0 C49.8197371 6.87947032 47.19745965 13.45055898 44.3125 20.0625 C43.89677734 21.02349609 43.48105469 21.98449219 43.05273438 22.97460938 C42.03848513 25.31787486 41.02085998 27.65960887 40 30 C27.15482043 31.92925033 27.15482043 31.92925033 21.96630859 28.75634766 C17.77416777 25.31132104 14.25104093 21.33101001 11 17 C11 16.34 11 15.68 11 15 C10.01 14.67 9.02 14.34 8 14 C5.36 19.28 2.72 24.56 0 30 C-3.96 29.67 -7.92 29.34 -12 29 C-9.87480548 22.23926792 -7.27259746 15.8722892 -4.3125 9.4375 C-3.89677734 8.52419922 -3.48105469 7.61089844 -3.05273438 6.66992188 C-2.03917098 4.44474248 -1.02154784 2.22152219 0 0 Z " fill="#FFFFFF" transform="translate(676,285)"/>
<path d="M0 0 C0.78295441 -0.00902847 1.56590881 -0.01805695 2.37258911 -0.02735901 C4.02846454 -0.04185964 5.68439724 -0.05074779 7.34033203 -0.05444336 C9.86719915 -0.06633279 12.39161761 -0.11550831 14.91796875 -0.16601562 C16.52863394 -0.17548117 18.1393141 -0.18271558 19.75 -0.1875 C20.50223846 -0.20703232 21.25447693 -0.22656464 22.0295105 -0.24668884 C25.99050146 -0.21281479 27.82615013 0.23186466 31.00439453 2.66772461 C33.54429443 6.09501093 33.41655117 8.20195933 33.0078125 12.37109375 C31.05014969 12.45191469 29.09154522 12.51020153 27.1328125 12.55859375 C25.49699219 12.61080078 25.49699219 12.61080078 23.828125 12.6640625 C22.89742187 12.56738281 21.96671875 12.47070312 21.0078125 12.37109375 C20.3478125 11.38109375 19.6878125 10.39109375 19.0078125 9.37109375 C15.2586677 8.67904298 11.43829026 8.86185715 7.6328125 8.87109375 C6.57835937 8.84273438 5.52390625 8.814375 4.4375 8.78515625 C-1.56733973 8.65404685 -1.56733973 8.65404685 -6.59375 11.52734375 C-8.02248585 14.43270604 -9.1220146 17.25297421 -9.9921875 20.37109375 C-6.0755832 20.42919035 -2.15908987 20.46472268 1.7578125 20.49609375 C2.86898437 20.51285156 3.98015625 20.52960938 5.125 20.546875 C6.19492187 20.55332031 7.26484375 20.55976563 8.3671875 20.56640625 C9.35170898 20.57687988 10.33623047 20.58735352 11.35058594 20.59814453 C14.10192198 20.36305242 15.61598712 19.67387523 18.0078125 18.37109375 C21.0234375 18.17578125 21.0234375 18.17578125 24.2578125 18.24609375 C25.33546875 18.26414062 26.413125 18.2821875 27.5234375 18.30078125 C28.75320313 18.33558594 28.75320313 18.33558594 30.0078125 18.37109375 C29.2957558 23.35495322 27.86391994 25.76293805 23.99462891 28.94433594 C17.76594801 31.91968424 10.67688316 31.23780166 3.90649414 31.06396484 C1.18473479 30.99582895 -1.53332084 30.98195221 -4.25585938 30.9765625 C-5.98701656 30.9575754 -7.71814366 30.93554796 -9.44921875 30.91015625 C-10.26171585 30.90368073 -11.07421295 30.8972052 -11.91133118 30.89053345 C-17.56311555 30.72304356 -17.56311555 30.72304356 -19.70439148 28.96664429 C-21.80667573 26.36196101 -21.40008804 23.99689518 -21.26953125 20.76953125 C-20.36849597 12.97747971 -16.55055654 7.75260559 -10.9921875 2.37109375 C-7.26942388 -0.11074866 -4.31570699 0.03060194 0 0 Z " fill="#FFFFFF" transform="translate(611.9921875,283.62890625)"/>
<path d="M0 0 C1.60294922 0.15275391 1.60294922 0.15275391 3.23828125 0.30859375 C4.45064453 0.43427734 4.45064453 0.43427734 5.6875 0.5625 C6.97501357 4.35084888 8.25659069 8.14114846 9.53271484 11.93334961 C9.96761228 13.22296159 10.40412422 14.51203029 10.84228516 15.80053711 C11.47202574 17.6533453 12.09547257 19.50828889 12.71875 21.36328125 C13.09580078 22.47872314 13.47285156 23.59416504 13.86132812 24.7434082 C14.6875 27.5625 14.6875 27.5625 14.6875 30.5625 C10.7275 30.5625 6.7675 30.5625 2.6875 30.5625 C2.0275 28.9125 1.3675 27.2625 0.6875 25.5625 C-3.24594193 25.60665748 -7.17800945 25.67648984 -11.1105957 25.77001953 C-13.10539131 25.81208649 -15.10058082 25.83387864 -17.09570312 25.85546875 C-18.34931641 25.88769531 -19.60292969 25.91992188 -20.89453125 25.953125 C-22.63053589 25.9845459 -22.63053589 25.9845459 -24.40161133 26.01660156 C-27.42283205 26.2660715 -27.42283205 26.2660715 -29.00390625 28.5625 C-29.43574219 29.2225 -29.86757813 29.8825 -30.3125 30.5625 C-33.66796875 31.171875 -33.66796875 31.171875 -37.5 31.3125 C-38.77230469 31.36921875 -40.04460938 31.4259375 -41.35546875 31.484375 C-42.33128906 31.51015625 -43.30710937 31.5359375 -44.3125 31.5625 C-43.74539291 28.33348814 -42.95023172 26.86111024 -40.44140625 24.765625 C-39.57999023 24.04052734 -39.57999023 24.04052734 -38.70117188 23.30078125 C-38.09853516 22.80964844 -37.49589844 22.31851562 -36.875 21.8125 C-36.27623047 21.30589844 -35.67746094 20.79929687 -35.06054688 20.27734375 C-30.5897174 16.5625 -30.5897174 16.5625 -28.3125 16.5625 C-28.3125 15.9025 -28.3125 15.2425 -28.3125 14.5625 C-26.07621903 12.67480708 -23.83189081 10.88712833 -21.5 9.125 C-20.22126544 8.14895486 -18.94387603 7.17114438 -17.66796875 6.19140625 C-16.81174927 5.5428064 -16.81174927 5.5428064 -15.93823242 4.88110352 C-14.26669381 3.60225199 -14.26669381 3.60225199 -12.9152832 1.96069336 C-9.22918913 -1.2548833 -4.57432978 -0.45240624 0 0 Z M-10.13671875 11.05859375 C-10.75160156 11.69925781 -11.36648438 12.33992188 -12 13 C-12.62261719 13.63808594 -13.24523437 14.27617187 -13.88671875 14.93359375 C-15.42227206 16.32711741 -15.42227206 16.32711741 -15.3125 17.5625 C-11.6825 17.5625 -8.0525 17.5625 -4.3125 17.5625 C-4.6425 14.9225 -4.9725 12.2825 -5.3125 9.5625 C-8.31909915 9.24543051 -8.31909915 9.24543051 -10.13671875 11.05859375 Z " fill="#FFFFFF" transform="translate(571.3125,282.4375)"/>
<path d="M0 0 C0.99773438 0.02320313 1.99546875 0.04640625 3.0234375 0.0703125 C4.52777344 0.09738281 4.52777344 0.09738281 6.0625 0.125 C6.83335937 0.14820313 7.60421875 0.17140625 8.3984375 0.1953125 C7.51575877 6.7211305 5.03997944 12.02226394 2.2734375 17.9453125 C1.81195312 18.99847656 1.35046875 20.05164063 0.875 21.13671875 C-2.59675283 28.56665132 -2.59675283 28.56665132 -5.42700195 30.33740234 C-8.7302689 31.32087402 -12.17581077 31.40293382 -15.6015625 31.1953125 C-15.03242572 27.01882466 -14.07006017 23.50825111 -12.38671875 19.6484375 C-11.94779297 18.63910156 -11.50886719 17.62976563 -11.05664062 16.58984375 C-10.59708984 15.55214844 -10.13753906 14.51445312 -9.6640625 13.4453125 C-9.20837891 12.39214844 -8.75269531 11.33898437 -8.28320312 10.25390625 C-3.91698386 0.29406786 -3.91698386 0.29406786 0 0 Z " fill="#FFFFFF" transform="translate(658.6015625,283.8046875)"/>
<path d="M0 0 C2 1 2 1 2 1 Z " fill="#EF0000" transform="translate(334,401)"/>
<path d="" fill="#FFFFFF" transform="translate(0,0)"/>
<path d="" fill="#FFFFFF" transform="translate(0,0)"/>
<path d="" fill="#E50000" transform="translate(0,0)"/>
<path d="" fill="#FF0000" transform="translate(0,0)"/>
<path d="" fill="#DF0000" transform="translate(0,0)"/>
<path d="" fill="#FFFFFF" transform="translate(0,0)"/>
<path d="" fill="#FFFFFF" transform="translate(0,0)"/>
<path d="" fill="#FFFFFF" transform="translate(0,0)"/>
<path d="" fill="#FFFFFF" transform="translate(0,0)"/>
<path d="" fill="#FFFFFF" transform="translate(0,0)"/>
<path d="" fill="#FFFFFF" transform="translate(0,0)"/>
</svg>
