<?xml version="1.0" encoding="UTF-8"?>
<svg version="1.1" xmlns="http://www.w3.org/2000/svg" width="779" height="212">
<path d="M0 0 C1.78659094 -0.00135722 3.57318159 -0.00313895 5.35977173 -0.00531006 C10.18162337 -0.00984422 15.00345347 -0.00811197 19.82530546 -0.00493097 C24.881147 -0.0023889 29.93698676 -0.00474983 34.99282837 -0.00631714 C43.47438893 -0.00813245 51.95594076 -0.00574824 60.4375 -0.00097656 C70.24139171 0.00447536 80.04526266 0.00269409 89.84915388 -0.00280297 C98.27826057 -0.00733973 106.70736101 -0.00798219 115.13646853 -0.0053643 C120.16613075 -0.00380599 125.1957832 -0.00359578 130.22544479 -0.00690079 C134.94836019 -0.00978803 139.67124873 -0.00778807 144.39416122 -0.00200653 C146.12718155 -0.00068398 147.86020414 -0.00106451 149.59322357 -0.0032692 C151.9577993 -0.00600021 154.32228889 -0.00257576 156.68685913 0.00241089 C157.3729442 0.00018017 158.05902926 -0.00205055 158.76590478 -0.00434887 C162.34383028 0.01029498 165.64304131 0.28789613 169.12353516 1.12939453 C168.59609979 6.64405901 167.15773138 10.85272418 164.74462891 15.81298828 C164.41310318 16.51335709 164.08157745 17.21372589 163.74000549 17.93531799 C162.68913063 20.15015269 161.62535608 22.35849488 160.56103516 24.56689453 C159.84207148 26.07624856 159.12396375 27.58601063 158.40673828 29.09619141 C156.65553235 32.77871773 154.89273776 36.45548268 153.12353516 40.12939453 C132.99883101 40.94591794 112.8847418 41.23364274 92.74462891 41.34033203 C90.27983544 41.35465672 87.81504255 41.36908216 85.35025024 41.38360596 C75.16573923 41.44201838 64.98125956 41.49763655 54.79663086 41.53076172 C48.48203091 41.55181657 42.16764392 41.58715542 35.85316658 41.63151932 C33.48003712 41.64553547 31.10687039 41.65436863 28.73370171 41.6575737 C12.94972416 41.68121572 -3.11182573 41.76532595 -17.87646484 48.12939453 C-18.94923839 49.84850454 -18.94923839 49.84850454 -19.87646484 52.12939453 C-20.81583206 53.85535275 -21.75522438 55.58129731 -22.69482422 57.30712891 C-27.00820926 65.29404257 -31.02260226 73.41136655 -34.87646484 81.62939453 C-35.35720459 82.63131836 -35.83794434 83.63324219 -36.33325195 84.66552734 C-40.44824743 93.06111661 -40.44824743 93.06111661 -40.87646484 102.12939453 C-38.83448285 105.22104311 -37.1651458 106.85637654 -33.47592163 107.63796997 C-30.39838879 107.90467584 -27.3519057 108.00460696 -24.26318359 108.05517578 C-22.53744362 108.11155968 -22.53744362 108.11155968 -20.77684021 108.16908264 C-17.03945049 108.28449494 -13.30232037 108.36452538 -9.56396484 108.44189453 C-7.00582286 108.50970384 -4.44771673 108.57887946 -1.88964844 108.64941406 C4.33902579 108.81355388 10.56784732 108.94546547 16.79754639 109.06365967 C19.77646502 109.12253503 22.75485334 109.19146428 25.73339844 109.26660156 C30.15506605 109.37683704 34.57583025 109.44893826 38.99853516 109.50439453 C40.83411987 109.54367065 40.83411987 109.54367065 42.70678711 109.58374023 C51.25649184 109.60027264 58.59529238 107.99111314 65.56103516 102.81689453 C68.75565048 99.77961085 68.75565048 99.77961085 71.12353516 93.12939453 C46.04353516 93.12939453 20.96353516 93.12939453 -4.87646484 93.12939453 C-3.75093404 84.12514811 -3.75093404 84.12514811 -1.66162109 80.26220703 C-1.22269531 79.43978516 -0.78376953 78.61736328 -0.33154297 77.77001953 C0.3577832 76.52478516 0.3577832 76.52478516 1.06103516 75.25439453 C1.51671875 74.40103516 1.97240234 73.54767578 2.44189453 72.66845703 C5.80096362 66.45196607 5.80096362 66.45196607 8.12353516 64.12939453 C10.42553711 63.88050556 10.42553711 63.88050556 13.36181641 63.88215637 C14.47234375 63.87796188 15.58287109 63.8737674 16.72705078 63.8694458 C17.95101562 63.87506531 19.17498047 63.88068481 20.43603516 63.88647461 C22.36286133 63.88362709 22.36286133 63.88362709 24.32861328 63.88072205 C27.85748931 63.87586593 31.38623931 63.88353888 34.9151001 63.89367509 C38.60306663 63.90244346 42.29102907 63.90069838 45.97900391 63.90031433 C52.17303584 63.90125155 58.36701886 63.90994313 64.56103516 63.92358398 C71.72854342 63.93931011 78.89599807 63.94458212 86.06352234 63.94384843 C92.95023342 63.94323862 99.83692699 63.94833978 106.72363281 63.95664024 C109.65820451 63.96017634 112.59277002 63.96200396 115.52734375 63.96253395 C119.62193344 63.96372261 123.71645931 63.9734251 127.81103516 63.98413086 C129.035 63.98367767 130.25896484 63.98322449 131.52001953 63.98275757 C133.18581055 63.98915504 133.18581055 63.98915504 134.88525391 63.99568176 C135.85422607 63.99735761 136.82319824 63.99903345 137.8215332 64.00076008 C140.12353516 64.12939453 140.12353516 64.12939453 142.12353516 65.12939453 C141.63452341 70.92675744 140.38050826 75.54705813 137.87353516 80.81689453 C137.14982177 82.38151015 136.42725252 83.94665529 135.70556641 85.51220703 C135.09769287 86.8217334 135.09769287 86.8217334 134.47753906 88.15771484 C133.21344361 90.9320693 131.98717321 93.72062017 130.77651978 96.5186615 C129.65881869 99.10186104 128.53089544 101.68055111 127.40270996 104.25918579 C126.84842319 105.53197532 126.29810413 106.80650127 125.7520752 108.08285522 C122.37936011 115.95092805 118.8090866 122.70281665 113.12353516 129.12939453 C112.00205078 130.41716797 112.00205078 130.41716797 110.85791016 131.73095703 C95.93779535 146.94477488 78.38885611 152.06488096 57.56544495 152.34539795 C54.93643969 152.33965951 52.30913001 152.3232551 49.68041992 152.29638672 C48.21485283 152.2892076 46.74928112 152.28292362 45.28370667 152.27745056 C41.35844997 152.26005886 37.4334003 152.22965663 33.50825238 152.19611645 C29.37524772 152.16254422 25.24218089 152.13952606 21.1091156 152.11480713 C14.18066641 152.07167184 7.252323 152.01985235 0.32397461 151.96289062 C-7.66614387 151.89732168 -15.65625755 151.84635531 -23.64652485 151.80294871 C-31.37051645 151.76059244 -39.09439672 151.70726371 -46.81828499 151.64920807 C-50.09036191 151.62484208 -53.36242791 151.60438639 -56.63455009 151.58718109 C-60.48679721 151.56647767 -64.33885474 151.53615201 -68.19097328 151.4985981 C-69.598169 151.48640212 -71.00539741 151.4774474 -72.4126358 151.4720974 C-83.34824925 151.4274043 -92.98398222 151.10190932 -101.87646484 144.12939453 C-107.55862945 138.29365791 -109.85135924 131.13808117 -109.87646484 123.12939453 C-109.42376409 116.37824849 -107.69552844 110.16852527 -105.30615234 103.86376953 C-105.04594803 103.17453903 -104.78574371 102.48530853 -104.51765442 101.77519226 C-101.26131313 93.31935752 -97.40662634 85.14290166 -93.56396484 76.94189453 C-92.04437745 73.67940318 -90.52950887 70.41474589 -89.01708984 67.14892578 C-88.46884804 65.96594406 -88.46884804 65.96594406 -87.90953064 64.75906372 C-85.06961747 58.60612773 -82.40445362 52.39137219 -79.81396484 46.12939453 C-71.93620633 27.30834126 -60.912889 12.27067736 -41.56005859 4.09033203 C-28.33972923 -0.64358503 -13.84364371 -0.01774688 0 0 Z " fill="#E10000" transform="translate(605.87646484375,3.87060546875)"/>
<path d="M0 0 C2.30428553 0.00085835 4.60857146 0.00093707 6.91285706 0.00028992 C13.05268476 0.00143626 19.1924141 0.01572084 25.33221436 0.03323364 C29.12959966 0.04297053 32.92697025 0.04880148 36.72436523 0.05322266 C77.38570506 0.10072339 118.03795027 0.41979776 158.69140625 1.23046875 C157.87498274 5.73424265 156.36349726 9.69391356 154.5234375 13.8671875 C154.20614182 14.5878389 153.88884613 15.3084903 153.56193542 16.05097961 C152.89006155 17.56769344 152.21497141 19.08298613 151.53686523 20.59692383 C150.84769774 22.14547389 150.16799977 23.69827273 149.49780273 25.25512695 C148.52685893 27.51050635 147.52867902 29.75192106 146.5234375 31.9921875 C146.08243462 33.03592781 146.08243462 33.03592781 145.63252258 34.10075378 C144.1543924 37.31182091 143.26426219 38.98199736 139.96531296 40.41288853 C136.59653067 41.25416167 133.73443212 41.48361324 130.2666626 41.48875427 C128.99391479 41.49558228 127.72116699 41.50241028 126.40985107 41.50944519 C125.01184053 41.50702612 123.61383027 41.50444186 122.21582031 41.50170898 C120.73363968 41.50609943 119.25146151 41.51140274 117.76928711 41.51754761 C114.58380883 41.52902572 111.39839687 41.53450543 108.21289825 41.535429 C103.16886894 41.53737484 98.12497606 41.55545718 93.08099365 41.57618713 C80.55061594 41.6253093 68.02020118 41.65622339 55.48974609 41.67749023 C45.75352499 41.6940411 36.01742111 41.71693746 26.28127837 41.76051098 C21.27462512 41.7822087 16.26819497 41.79035252 11.26149797 41.78811824 C8.13618082 41.78979356 5.01100738 41.80389469 1.88574219 41.82133102 C0.44509687 41.82689613 -0.99557869 41.82744776 -2.43622589 41.82239342 C-12.55204828 41.79064574 -22.6269217 41.80485243 -30.30859375 49.23046875 C-30.26903477 51.15356297 -30.26903477 51.15356297 -29.30859375 53.23046875 C-25.05648815 55.80689412 -21.7746747 56.62226944 -16.83764648 56.72460938 C-15.5639772 56.75752075 -14.29030792 56.79043213 -12.9780426 56.82434082 C-11.58693015 56.84552577 -10.19581149 56.86630597 -8.8046875 56.88671875 C-7.33871659 56.91849189 -5.87276891 56.95135335 -4.40684509 56.98522949 C0.2922933 57.08816539 4.99168013 57.16052157 9.69140625 57.23046875 C11.2510401 57.25537786 12.81067148 57.28044203 14.37030029 57.30566406 C26.27154661 57.49460687 38.17333236 57.62973951 50.07537842 57.75653076 C54.91933998 57.80820193 59.76324361 57.8630953 64.60711861 57.92234802 C66.81007575 57.94809473 69.01304267 57.96935118 71.21604919 57.99035645 C75.37556621 58.03584302 79.5331701 58.11801015 83.69140625 58.23046875 C84.46623981 58.25098297 85.24107338 58.27149719 86.03938675 58.29263306 C88.44071033 58.36497854 90.84020932 58.45941103 93.24047852 58.56054688 C94.33049242 58.59265888 94.33049242 58.59265888 95.44252682 58.62541962 C102.44503567 58.96631878 108.75220622 60.78595361 114.00390625 65.66796875 C114.63941406 66.24417969 115.27492188 66.82039063 115.9296875 67.4140625 C119.08857435 70.67100792 121.12084387 72.87485089 121.12890625 77.54296875 C120.44300329 96.28183762 109.82943099 116.34081849 97.69140625 130.23046875 C97.03140625 130.23046875 96.37140625 130.23046875 95.69140625 130.23046875 C95.69140625 130.89046875 95.69140625 131.55046875 95.69140625 132.23046875 C78.20856804 148.21570816 57.69684013 151.72029539 34.82250977 151.57104492 C32.97795628 151.57019661 31.13340178 151.57067776 29.28884888 151.57237244 C24.32906052 151.57322587 19.36949411 151.55570694 14.4097569 151.53465056 C9.20880618 151.51577384 4.0078492 151.51412472 -1.19313049 151.51057434 C-11.02061043 151.50128596 -20.8479891 151.476716 -30.67542464 151.44652587 C-41.87264308 151.4128815 -53.06986661 151.39647072 -64.2671231 151.38143957 C-87.28100259 151.35016328 -110.29479247 151.29746577 -133.30859375 151.23046875 C-133.00496718 149.80333484 -132.69758704 148.37699922 -132.38865662 146.95100403 C-132.21789329 146.15662839 -132.04712996 145.36225275 -131.87119198 144.54380512 C-131.09087064 141.33521748 -129.89678901 138.39770169 -128.59375 135.3671875 C-128.33734238 134.76791946 -128.08093475 134.16865143 -127.8167572 133.55122375 C-127.2801359 132.30196903 -126.73971346 131.05434044 -126.19555664 129.80834961 C-125.36690567 127.90836605 -124.55280291 126.00261209 -123.74023438 124.09570312 C-118.89166337 112.87404125 -118.89166337 112.87404125 -116.30859375 110.23046875 C-113.47863483 109.73383331 -113.47863483 109.73383331 -109.96540833 109.73840332 C-109.31920475 109.73372433 -108.67300118 109.72904534 -108.00721568 109.72422457 C-105.83749637 109.71327407 -103.66893238 109.73079633 -101.49926758 109.74804688 C-99.94531918 109.74586142 -98.39137243 109.74186532 -96.83743286 109.7361908 C-93.48810126 109.72761599 -90.13908984 109.73142362 -86.78977394 109.74461365 C-81.49025082 109.76492866 -76.19105129 109.75498131 -70.89152527 109.74035645 C-58.67875154 109.71129683 -46.46607214 109.72204089 -34.25328064 109.73305511 C-23.07396481 109.7427342 -11.89481767 109.74397066 -0.71553057 109.71317434 C4.54852921 109.69981842 9.81210434 109.70573669 15.07613504 109.72653961 C18.35868881 109.73554791 21.64105727 109.72803094 24.92359543 109.7161274 C26.44088562 109.71400276 27.95820368 109.71868176 29.4754467 109.73083305 C38.73424894 109.80077583 46.06732312 109.73286548 53.06640625 102.91796875 C54.95982706 99.78654202 55.7423754 96.75013533 56.69140625 93.23046875 C54.92047607 93.23832397 54.92047607 93.23832397 53.11376953 93.24633789 C27.78090753 93.34761485 2.45852692 93.22757698 -22.87109375 92.79296875 C-24.66797638 92.76349655 -24.66797638 92.76349655 -26.50115967 92.73342896 C-33.34006392 92.61924174 -40.17773175 92.47997063 -47.01544189 92.30841064 C-49.23285663 92.25592916 -51.45045131 92.21061595 -53.66815186 92.17205811 C-56.91227344 92.11441254 -60.15499255 92.03251964 -63.3984375 91.9453125 C-64.3537587 91.93335342 -65.3090799 91.92139435 -66.29335022 91.90907288 C-74.37040574 91.64796821 -82.07750482 89.96070313 -87.80859375 83.91796875 C-93.28821579 76.54988939 -92.90967841 68.0559181 -92.30859375 59.23046875 C-90.09557962 44.55762717 -83.19645172 27.76293497 -71.74609375 17.98046875 C-50.19587024 2.08596001 -25.84187539 -0.08877638 0 0 Z " fill="#E20000" transform="translate(370.30859375,1.76953125)"/>
<path d="M0 0 C1.71924883 -0.00135735 3.43849737 -0.00313916 5.15774536 -0.00531006 C9.79565171 -0.00984223 14.43353566 -0.00811292 19.07144237 -0.00493097 C23.9342306 -0.00238836 28.79701699 -0.00474993 33.6598053 -0.00631714 C41.81601301 -0.00813208 49.97221164 -0.00574899 58.12841797 -0.00097656 C67.55856136 0.00447754 76.98868317 0.00269237 86.41882604 -0.00280297 C94.52605147 -0.00733812 102.63327041 -0.00798305 110.7404967 -0.0053643 C115.57841983 -0.00380539 120.41633281 -0.00359748 125.25425529 -0.00690079 C129.79577652 -0.00978576 134.3372698 -0.00779225 138.87878799 -0.00200653 C140.5461135 -0.00068286 142.21344134 -0.00106642 143.88076591 -0.0032692 C146.15373241 -0.00599573 148.42660896 -0.00258124 150.6995697 0.00241089 C152.6083737 0.00297643 152.6083737 0.00297643 154.5557394 0.00355339 C157.16551111 0.10636014 159.27707729 0.34896129 161.75024414 1.12939453 C161.17714052 5.9098173 159.72139694 9.86692406 157.66040039 14.17236328 C157.35581406 14.82263992 157.05122772 15.47291656 156.7374115 16.14289856 C156.09614714 17.50843809 155.45135676 18.87232681 154.80322266 20.23461914 C153.81234313 22.31773758 152.83216041 24.40562457 151.85375977 26.49462891 C151.22742124 27.82499656 150.60048854 29.15508467 149.97290039 30.48486328 C149.68012711 31.10677048 149.38735382 31.72867767 149.08570862 32.36943054 C147.78047834 35.10812849 146.43787996 37.59794081 144.75024414 40.12939453 C142.23353481 40.50856876 142.23353481 40.50856876 138.98960876 40.5146637 C137.76298523 40.52431152 136.53636169 40.53395935 135.27256775 40.54389954 C133.90566931 40.53953529 132.53877171 40.53490279 131.171875 40.5300293 C129.73791937 40.53576923 128.30396857 40.54285093 126.87002563 40.55117798 C123.77666181 40.56632086 120.6834709 40.57206276 117.59007072 40.5706501 C112.69362144 40.56861923 107.79740475 40.58816733 102.90101624 40.61082458 C93.380922 40.65186302 83.86084577 40.6704069 74.34068298 40.68699646 C62.24825644 40.70932248 50.15588368 40.74302531 38.06354433 40.79419559 C33.20216218 40.81405877 28.34090081 40.82369347 23.47947967 40.82514775 C20.44383483 40.82791145 17.40825579 40.83877169 14.3726387 40.85165787 C12.97188621 40.85591361 11.57111857 40.85681385 10.17036247 40.85398293 C-3.06782818 40.81310626 -3.06782818 40.81310626 -15.49975586 45.00439453 C-16.10303711 45.31119141 -16.70631836 45.61798828 -17.32788086 45.93408203 C-22.21743575 48.97514666 -25.75171182 52.68129322 -29.18725586 57.25439453 C-29.62255615 57.82915527 -30.05785645 58.40391602 -30.50634766 58.99609375 C-40.82089416 72.8012162 -47.65897523 88.00433454 -50.24975586 105.12939453 C-49.63100586 105.25314453 -49.01225586 105.37689453 -48.37475586 105.50439453 C-46.24975586 106.12939453 -46.24975586 106.12939453 -44.24975586 108.12939453 C-40.92070803 109.29941775 -37.66830838 109.2783839 -34.1635437 109.31884766 C-32.91564056 109.33560547 -31.66773743 109.35236328 -30.38201904 109.36962891 C-29.00183185 109.38338081 -27.62164383 109.39704991 -26.24145508 109.41064453 C-24.78599536 109.42845295 -23.33054087 109.44669286 -21.87509155 109.46533203 C-18.74307624 109.50457606 -15.61104543 109.54088403 -12.47896957 109.57495117 C-7.52970416 109.62891955 -2.58054447 109.69011929 2.36862183 109.75244141 C13.7649459 109.89484762 25.16137572 110.02788432 36.55781555 110.16064453 C47.00788522 110.28244812 57.45792075 110.40621989 67.90787113 110.53791046 C72.83134576 110.59967851 77.75484604 110.65671666 82.67841744 110.71018982 C85.73558161 110.74435076 88.79268624 110.78250933 91.84978867 110.82177734 C93.2712075 110.8392017 94.69264813 110.8549387 96.11410522 110.86889648 C98.04878602 110.8881191 99.983399 110.91384415 101.91799927 110.93994141 C103.0023633 110.95246948 104.08672733 110.96499756 105.20395088 110.97790527 C107.75024414 111.12939453 107.75024414 111.12939453 109.75024414 112.12939453 C108.35177805 121.02245707 104.48400722 128.66023886 100.62524414 136.69189453 C99.95903718 138.09579197 99.2936654 139.50008606 98.62915039 140.90478516 C97.01244463 144.31763924 95.38451885 147.72492082 93.75024414 151.12939453 C49.26142944 151.75302499 4.77240309 152.24354975 -39.72113037 152.30664062 C-43.85059022 152.31250503 -47.97999754 152.3229329 -52.10943604 152.33740234 C-56.99838845 152.35403852 -61.88724848 152.36029689 -66.77622795 152.35859108 C-68.5661968 152.35942362 -70.35616784 152.36352442 -72.14612007 152.37128258 C-100.22613087 152.48410286 -100.22613087 152.48410286 -107.24975586 146.12939453 C-114.15556895 138.9929071 -115.48016399 134.61627998 -115.62475586 124.81689453 C-115.66213867 123.8984375 -115.69952148 122.97998047 -115.73803711 122.03369141 C-115.89829598 109.13285264 -109.95048793 97.95688225 -104.14749146 86.73736572 C-102.47186907 83.49518418 -100.8255338 80.23820734 -99.17944336 76.98095703 C-98.68037224 75.99462784 -98.68037224 75.99462784 -98.17121887 74.9883728 C-94.89429389 68.48128086 -91.83500564 61.88348945 -88.81225586 55.25439453 C-87.83855762 53.13187936 -86.86460916 51.00947896 -85.89038086 48.88720703 C-84.62665587 46.13286508 -83.36319322 43.37847196 -82.10717773 40.62060547 C-74.77111169 24.63122396 -64.87793566 13.32597393 -48.43334961 6.25830078 C-44.58329661 4.89306726 -40.71872133 3.83681463 -36.74975586 2.87939453 C-36.07420654 2.71608643 -35.39865723 2.55277832 -34.70263672 2.38452148 C-23.27082354 -0.17512463 -11.64808608 -0.01553246 0 0 Z " fill="#E20000" transform="translate(115.249755859375,-0.12939453125)"/>
<path d="M0 0 C0.79949066 -0.00287018 1.59898132 -0.00574036 2.42269897 -0.00869751 C4.10179356 -0.01072736 5.78091238 -0.00527349 7.45996094 0.00732422 C10.02332439 0.02343679 12.58512156 0.0074178 15.1484375 -0.01171875 C16.78646179 -0.00973695 18.42448512 -0.0058946 20.0625 0 C20.82406403 -0.00607269 21.58562805 -0.01214539 22.37026978 -0.0184021 C26.89165046 0.04116404 29.75511475 0.68280019 33.3984375 3.3984375 C33.0684375 6.0384375 32.7384375 8.6784375 32.3984375 11.3984375 C27.7784375 11.3984375 23.1584375 11.3984375 18.3984375 11.3984375 C18.3984375 10.7384375 18.3984375 10.0784375 18.3984375 9.3984375 C17.58632813 9.553125 16.77421875 9.7078125 15.9375 9.8671875 C11.13440999 10.58818114 6.34732438 10.77903038 1.5 11.00390625 C-2.03985535 11.18592009 -5.14578651 11.5344935 -8.6015625 12.3984375 C-9.2615625 15.3684375 -9.9215625 18.3384375 -10.6015625 21.3984375 C-6.6415625 21.3984375 -2.6815625 21.3984375 1.3984375 21.3984375 C1.3984375 18.7584375 1.3984375 16.1184375 1.3984375 13.3984375 C10.3084375 13.3984375 19.2184375 13.3984375 28.3984375 13.3984375 C28.3984375 22.45997596 28.3984375 22.45997596 25.7734375 25.7109375 C25.28617188 26.34644531 24.79890625 26.98195312 24.296875 27.63671875 C19.45934031 32.12587131 14.48686287 32.84912209 8.11328125 32.796875 C7.33457169 32.79974518 6.55586212 32.80261536 5.7535553 32.80557251 C4.11556262 32.8076047 2.47754521 32.80213423 0.83959961 32.78955078 C-1.66022147 32.77346222 -4.15843136 32.78943841 -6.65820312 32.80859375 C-8.25521188 32.80661159 -9.85221964 32.80276848 -11.44921875 32.796875 C-12.19204605 32.80294769 -12.93487335 32.80902039 -13.70021057 32.8152771 C-18.59600034 32.74923326 -22.07554502 31.92445498 -25.6015625 28.3984375 C-26.43326518 19.0833675 -22.69464894 12.58975717 -17.45703125 5.125 C-12.39369413 0.41343156 -6.5730098 -0.05269313 0 0 Z " fill="#000000" transform="translate(683.6015625,178.6015625)"/>
<path d="M0 0 C4.27364365 4.10309918 7.8573824 8.85720258 11.4375 13.5625 C13.44134991 10.55672513 14.69869742 7.71272736 16.0625 4.375 C16.84625 2.456875 17.63 0.53875 18.4375 -1.4375 C23.0575 -1.4375 27.6775 -1.4375 32.4375 -1.4375 C31.09893374 5.70152003 28.80968579 11.93279909 25.875 18.5625 C25.46314453 19.51511719 25.05128906 20.46773437 24.62695312 21.44921875 C21.59603153 28.40396847 21.59603153 28.40396847 20.4375 29.5625 C8.351299 31.43546095 8.351299 31.43546095 2.875 28.9375 C2.070625 28.15375 1.26625 27.37 0.4375 26.5625 C-0.42875 25.7375 -1.295 24.9125 -2.1875 24.0625 C-2.97125 23.2375 -3.755 22.4125 -4.5625 21.5625 C-5.7071875 20.5415625 -5.7071875 20.5415625 -6.875 19.5 C-8.5625 17.5625 -8.5625 17.5625 -8.5625 13.5625 C-11.87594855 14.298359 -11.87594855 14.298359 -13.38671875 17.72265625 C-14.01803148 19.01850869 -14.63875399 20.31956229 -15.25 21.625 C-15.73049805 22.61983398 -15.73049805 22.61983398 -16.22070312 23.63476562 C-17.0103598 25.27300858 -17.78762362 26.91721454 -18.5625 28.5625 C-22.8525 28.5625 -27.1425 28.5625 -31.5625 28.5625 C-31.05064192 22.06100435 -28.75078129 16.73797202 -26.125 10.8125 C-25.71701172 9.86761719 -25.30902344 8.92273438 -24.88867188 7.94921875 C-23.2880818 4.27804477 -21.78948576 0.90297864 -19.5625 -2.4375 C-12.92672428 -4.06258793 -5.54100757 -4.46814734 0 0 Z " fill="#000000" transform="translate(626.5625,181.4375)"/>
<path d="M0 0 C6.17467586 -0.09898364 12.34888843 -0.1715236 18.52416992 -0.21972656 C20.62418667 -0.23982397 22.72414758 -0.26710666 24.82397461 -0.30175781 C27.84502958 -0.3503577 30.86534377 -0.37298762 33.88671875 -0.390625 C35.29167854 -0.42159271 35.29167854 -0.42159271 36.72502136 -0.45318604 C40.97749837 -0.45464512 43.38011502 -0.36226729 47.11645508 1.82128906 C49 4 49 4 49.25 7.25 C47.51736355 12.44790935 44.03457876 17.48271062 39 20 C39.020625 21.258125 39.04125 22.51625 39.0625 23.8125 C39.10886083 26.64051087 38.91692961 28.24921116 38 31 C33.71 31 29.42 31 25 31 C24.505 28.03 24.505 28.03 24 25 C16.74 25 9.48 25 2 25 C1.34 26.98 0.68 28.96 0 31 C-4.29 31 -8.58 31 -13 31 C-12.13873234 26.69366172 -11.10983972 23.7399733 -9.27734375 19.82421875 C-8.47006836 18.08881836 -8.47006836 18.08881836 -7.64648438 16.31835938 C-7.07694064 15.10801751 -6.50727769 13.89773174 -5.9375 12.6875 C-5.36343439 11.45791463 -4.7898615 10.22809909 -4.21679688 8.99804688 C-2.81602767 5.99639857 -1.41027491 2.99719095 0 0 Z M9 10 C8.67 11.32 8.34 12.64 8 14 C16.25 14 24.5 14 33 14 C33.33 13.01 33.66 12.02 34 11 C30.64908229 10.24636948 27.56890188 9.88020063 24.13671875 9.90234375 C23.25048828 9.90556641 22.36425781 9.90878906 21.45117188 9.91210938 C20.0831543 9.92467773 20.0831543 9.92467773 18.6875 9.9375 C17.75615234 9.94201172 16.82480469 9.94652344 15.86523438 9.95117188 C13.57675627 9.96290766 11.28841192 9.97932637 9 10 Z " fill="#000000" transform="translate(415,177)"/>
<path d="M0 0 C2.20794073 0.00315941 4.41453912 -0.0203228 6.62231445 -0.0456543 C8.0383284 -0.04792777 9.45434592 -0.04863056 10.87036133 -0.04760742 C12.1477417 -0.05058838 13.42512207 -0.05356934 14.74121094 -0.05664062 C18.59055467 0.34828793 21.00330281 1.28732796 24.28051758 3.31567383 C26.06212034 6.25919143 26.36061795 7.71492103 25.90551758 11.12817383 C25.69926758 11.85004883 25.49301758 12.57192383 25.28051758 13.31567383 C22.39840456 14.27637817 20.58201714 14.42149266 17.59301758 14.37817383 C16.3806543 14.36463867 16.3806543 14.36463867 15.14379883 14.35083008 C14.22147461 14.33342773 14.22147461 14.33342773 13.28051758 14.31567383 C12.62051758 12.99567383 11.96051758 11.67567383 11.28051758 10.31567383 C7.67571812 10.42546467 4.07197078 10.55611428 0.46801758 10.69067383 C-0.55614258 10.72161133 -1.58030273 10.75254883 -2.63549805 10.78442383 C-4.10986328 10.84243164 -4.10986328 10.84243164 -5.61401367 10.90161133 C-6.97296753 10.94874268 -6.97296753 10.94874268 -8.359375 10.99682617 C-10.98473635 11.17595302 -10.98473635 11.17595302 -13.71948242 13.31567383 C-14.72116773 15.26400317 -14.72116773 15.26400317 -15.40698242 17.44067383 C-15.65834961 18.16512695 -15.9097168 18.88958008 -16.16870117 19.63598633 C-16.35045898 20.1902832 -16.5322168 20.74458008 -16.71948242 21.31567383 C-13.15636839 21.20537736 -9.59427098 21.07484666 -6.03198242 20.94067383 C-5.02458008 20.90973633 -4.01717773 20.87879883 -2.97924805 20.84692383 C-2.0027832 20.80825195 -1.02631836 20.76958008 -0.02026367 20.72973633 C0.87523193 20.69831543 1.77072754 20.66689453 2.69335938 20.63452148 C5.49950693 20.28868505 7.67729639 19.38708222 10.28051758 18.31567383 C13.39379883 18.33911133 13.39379883 18.33911133 16.59301758 18.69067383 C18.1959668 18.85696289 18.1959668 18.85696289 19.83129883 19.02661133 C20.63954102 19.12200195 21.4477832 19.21739258 22.28051758 19.31567383 C21.82887626 24.17081804 20.80001324 26.89129967 17.28051758 30.31567383 C12.65849533 32.27315616 8.3861172 32.61006708 3.43286133 32.58129883 C2.33138512 32.58416901 2.33138512 32.58416901 1.20765686 32.58709717 C-0.33617498 32.58845133 -1.8800185 32.58480892 -3.42382812 32.57641602 C-5.77850005 32.56568969 -8.13241184 32.57634501 -10.48706055 32.58911133 C-11.99292159 32.5877899 -13.49878217 32.58522784 -15.00463867 32.58129883 C-15.70371841 32.58534729 -16.40279816 32.58939575 -17.12306213 32.59356689 C-21.07796821 32.55584459 -24.22411146 32.22564297 -27.71948242 30.31567383 C-30.48738522 26.16381963 -30.21956516 23.02899405 -29.32495117 18.17504883 C-27.55145102 11.63026117 -23.82109586 6.73520342 -18.71948242 2.31567383 C-12.81979167 -0.65433748 -6.43845067 -0.01930892 0 0 Z " fill="#000000" transform="translate(550.719482421875,177.684326171875)"/>
<path d="M0 0 C1.02770508 0.0009668 1.02770508 0.0009668 2.07617188 0.00195312 C7.15614073 0.04682037 7.15614073 0.04682037 9.4375 1.1875 C11.07929391 4.98096948 12.27169022 8.95011726 13.5625 12.875 C13.93503906 13.96490234 14.30757812 15.05480469 14.69140625 16.17773438 C15.04332031 17.23669922 15.39523437 18.29566406 15.7578125 19.38671875 C16.24145264 20.83824341 16.24145264 20.83824341 16.73486328 22.3190918 C17.4375 25.1875 17.4375 25.1875 17.4375 31.1875 C13.1475 31.1875 8.8575 31.1875 4.4375 31.1875 C4.1075 29.5375 3.7775 27.8875 3.4375 26.1875 C2.50421875 26.34605469 1.5709375 26.50460938 0.609375 26.66796875 C-2.51393135 27.1169637 -5.58042043 27.28783055 -8.734375 27.36328125 C-10.10142578 27.39905273 -10.10142578 27.39905273 -11.49609375 27.43554688 C-13.38908518 27.47886776 -15.2823933 27.50992387 -17.17578125 27.52929688 C-18.53509766 27.57086914 -18.53509766 27.57086914 -19.921875 27.61328125 C-20.74139648 27.62786377 -21.56091797 27.64244629 -22.40527344 27.6574707 C-25.29229872 28.36681112 -25.87674482 29.82628315 -27.5625 32.1875 C-30.91796875 32.578125 -30.91796875 32.578125 -34.75 32.4375 C-36.02230469 32.40140625 -37.29460937 32.3653125 -38.60546875 32.328125 C-39.58128906 32.28171875 -40.55710937 32.2353125 -41.5625 32.1875 C-41.12350282 27.42606908 -39.34253148 25.54977627 -35.8125 22.4375 C-34.95140625 21.65890625 -34.0903125 20.8803125 -33.203125 20.078125 C-30.52368983 18.15971284 -28.80122075 17.53700224 -25.5625 17.1875 C-25.46050293 16.58373535 -25.35850586 15.9799707 -25.25341797 15.35791016 C-24.43859319 12.79826626 -23.62230391 12.0675631 -21.5078125 10.4609375 C-20.89292969 9.9865625 -20.27804687 9.5121875 -19.64453125 9.0234375 C-18.99871094 8.54132813 -18.35289062 8.05921875 -17.6875 7.5625 C-17.04941406 7.07265625 -16.41132813 6.5828125 -15.75390625 6.078125 C-10.35570339 1.95340214 -6.96963755 -0.12528204 0 0 Z M-7.38671875 11.68359375 C-8.00160156 12.32425781 -8.61648438 12.96492187 -9.25 13.625 C-9.87261719 14.26308594 -10.49523437 14.90117187 -11.13671875 15.55859375 C-12.67227206 16.95211741 -12.67227206 16.95211741 -12.5625 18.1875 C-9.2625 18.1875 -5.9625 18.1875 -2.5625 18.1875 C-2.5625 15.5475 -2.5625 12.9075 -2.5625 10.1875 C-5.56909915 9.87043051 -5.56909915 9.87043051 -7.38671875 11.68359375 Z " fill="#000000" transform="translate(499.5625,176.8125)"/>
<path d="M0 0 C1.47919922 0.19142578 1.47919922 0.19142578 2.98828125 0.38671875 C4.47908203 0.56654297 4.47908203 0.56654297 6 0.75 C6.75925781 0.85699219 7.51851562 0.96398437 8.30078125 1.07421875 C7.79828552 7.0639678 6.48979435 11.75567452 3.98828125 17.19921875 C3.69244141 17.87597656 3.39660156 18.55273438 3.09179688 19.25 C1.06868877 23.76812913 -1.1550726 28.5300726 -4.69921875 32.07421875 C-6.55209377 32.14648377 -8.40755753 32.15803095 -10.26171875 32.13671875 C-11.27363281 32.12769531 -12.28554688 32.11867187 -13.328125 32.109375 C-14.11058594 32.09777344 -14.89304687 32.08617187 -15.69921875 32.07421875 C-15.27046489 24.78540318 -13.42110087 19.27519313 -10.32421875 12.69921875 C-9.92460938 11.81105469 -9.525 10.92289063 -9.11328125 10.0078125 C-4.56836676 0.12561356 -4.56836676 0.12561356 0 0 Z " fill="#000000" transform="translate(589.69921875,177.92578125)"/>
</svg>
