<?xml version="1.0" encoding="UTF-8"?>
<svg version="1.1" xmlns="http://www.w3.org/2000/svg" width="847" height="282">
<path d="M0 0 C0.80464839 -0.00085442 1.60929677 -0.00170885 2.43832844 -0.00258917 C5.13144966 -0.00423477 7.82450843 0.00126237 10.5176239 0.00672913 C12.44937132 0.00701122 14.38111885 0.00685283 16.31286621 0.00628662 C21.55621394 0.00599952 26.79953883 0.01188218 32.04288125 0.01886058 C37.52283885 0.02510861 43.00279696 0.02569907 48.48275757 0.02688599 C58.85947453 0.02999502 69.23618096 0.03820265 79.61289328 0.04823548 C91.42656781 0.05940989 103.24024284 0.06491042 115.05392134 0.06993091 C139.35522321 0.08038561 163.65651574 0.09797678 187.95780945 0.12025452 C189.26054476 4.02846044 188.3465738 5.04606692 186.60624695 8.71400452 C186.08417664 9.82775452 185.56210632 10.94150452 185.0242157 12.08900452 C184.46605164 13.25431702 183.90788757 14.41962952 183.33280945 15.62025452 C182.25704652 17.90139036 181.18152343 20.18263933 180.10624695 22.46400452 C179.38187439 23.98284241 179.38187439 23.98284241 178.64286804 25.53236389 C177.18957397 28.6267727 175.7654641 31.73156464 174.35249329 34.84449768 C173.90363581 35.83306007 173.45477833 36.82162247 172.99231911 37.8401413 C172.65093092 38.59257866 172.30954273 39.34501602 171.95780945 40.12025452 C171.22434516 40.12264287 170.49088087 40.12503122 169.73519039 40.12749195 C151.8293783 40.18681235 133.92370205 40.26247023 116.01803493 40.35596943 C107.35873068 40.40079861 98.69946636 40.44024241 90.04008484 40.46669006 C82.48628523 40.48977504 74.93261341 40.52328867 67.37891537 40.56895608 C63.38498116 40.59274782 59.3911724 40.61156803 55.39716911 40.61786842 C51.62551079 40.62398367 47.85417287 40.64421047 44.08263397 40.67453003 C42.06379444 40.68729618 40.04487965 40.68575808 38.02600098 40.68353271 C24.67668427 40.81843997 10.3111942 42.55133135 -1.04219055 50.12025452 C-2.53447196 52.71959037 -2.53447196 52.71959037 -3.8976593 55.84291077 C-4.43431213 57.01378235 -4.97096497 58.18465393 -5.52388 59.39100647 C-6.09286743 60.6547497 -6.66146377 61.91866909 -7.22969055 63.18275452 C-8.10199177 65.10356553 -8.97652516 67.02334921 -9.85125732 68.9430542 C-10.43106242 70.21610121 -11.00981057 71.48963013 -11.5874939 72.76364136 C-13.2286517 76.37462546 -14.9166549 79.95556851 -16.67500305 83.51087952 C-17.04987854 84.27392395 -17.42475403 85.03696838 -17.81098938 85.82313538 C-18.48264492 87.18074369 -19.16403891 88.53359987 -19.8573761 89.88026428 C-21.92668024 94.10780789 -22.50551629 97.43551646 -22.04219055 102.12025452 C-20.1751055 104.48522891 -18.72157624 105.78056167 -16.04219055 107.12025452 C-13.45286181 107.34541354 -10.88738535 107.50421352 -8.29219055 107.62025452 C-7.43802551 107.66013489 -6.58386047 107.70001526 -5.70381165 107.74110413 C9.38755353 108.39909073 24.49078299 108.76080582 39.59269714 109.07020569 C41.87955552 109.11859856 44.16622307 109.17250225 46.45292664 109.22767639 C50.53775085 109.32355712 54.6221855 109.38108657 58.70780945 109.43275452 C59.90712097 109.46248352 61.1064325 109.49221252 62.34208679 109.52284241 C71.01801838 109.58180746 78.42101017 108.0962453 85.39530945 102.68275452 C87.81117376 100.2668902 89.46749094 98.183687 90.95780945 95.12025452 C90.95780945 94.46025452 90.95780945 93.80025452 90.95780945 93.12025452 C89.79841606 93.12358543 89.79841606 93.12358543 88.61560059 93.12698364 C81.27629478 93.14714944 73.93700271 93.16231084 66.59767628 93.17206669 C62.82586279 93.1772511 59.05407249 93.18426646 55.28227234 93.19569397 C51.63179997 93.20668273 47.98134969 93.21256465 44.33086205 93.21513176 C42.94885092 93.21695756 41.56684079 93.22052166 40.18483925 93.22598457 C31.39088035 93.25931472 22.7150438 92.93760875 13.95780945 92.12025452 C14.65790753 88.31851759 15.67879064 85.31380753 17.42655945 81.85462952 C17.91511414 80.88267639 18.40366882 79.91072327 18.9070282 78.90931702 C19.41878601 77.90642639 19.93054382 76.90353577 20.45780945 75.87025452 C20.96956726 74.85189514 21.48132507 73.83353577 22.0085907 72.78431702 C25.8035389 65.27452507 25.8035389 65.27452507 26.95780945 64.12025452 C28.65918843 64.01968476 30.36476084 63.98949057 32.06910706 63.98654175 C33.17681458 63.98227676 34.28452209 63.97801178 35.42579651 63.97361755 C37.26478012 63.97429733 37.26478012 63.97429733 39.14091492 63.97499084 C41.06511261 63.96995293 41.06511261 63.96995293 43.02818298 63.96481323 C46.55714301 63.95595223 50.08607881 63.95363422 53.61504889 63.95299745 C56.55744756 63.95204989 59.49984053 63.9483733 62.44223702 63.94482535 C69.38314038 63.93667248 76.32403076 63.93424184 83.26493835 63.93495178 C90.43185673 63.93555251 97.59869981 63.92500365 104.76559913 63.90920812 C110.91169111 63.89614362 117.05775845 63.89076744 123.20386422 63.89140719 C126.87771059 63.89166254 130.55149014 63.88879124 134.22532272 63.87822914 C138.32223933 63.86677319 142.41898678 63.87128829 146.51591492 63.87733459 C147.73785553 63.87171509 148.95979614 63.86609558 150.21876526 63.86030579 C151.33211243 63.86450027 152.44545959 63.86869476 153.59254456 63.87301636 C155.04656835 63.87219921 155.04656835 63.87219921 156.52996635 63.87136555 C158.95780945 64.12025452 158.95780945 64.12025452 161.95780945 66.12025452 C161.30302839 70.63325709 159.58364925 74.49916094 157.67655945 78.59681702 C157.34708313 79.31583191 157.01760681 80.0348468 156.67814636 80.77565002 C155.61044541 83.10154732 154.53479052 85.4236412 153.45780945 87.74525452 C152.72066936 89.34006947 151.98369054 90.93495897 151.24687195 92.52992249 C150.15341075 94.89542295 149.05900568 97.26046423 147.9617157 99.62419128 C146.00131929 103.84875285 144.06918775 108.08349365 142.17655945 112.33900452 C134.18160014 130.17026855 122.37222235 141.04697112 103.95780945 148.12025452 C93.12518536 152.05939055 80.94919502 151.25813411 69.58573914 151.18959045 C68.07972854 151.18434438 66.57371643 151.17951959 65.06770325 151.17507935 C61.01425135 151.16155553 56.96086497 151.1411114 52.90745449 151.11851406 C50.36989428 151.10457574 47.83233079 151.09196396 45.29476166 151.07976532 C36.42849768 151.0368626 27.5622915 150.98759671 18.6960907 150.9332428 C10.45039643 150.88289054 2.20472794 150.84773194 -6.04106832 150.819309 C-13.14293431 150.79406989 -20.24468498 150.75746261 -27.34645152 150.71222329 C-31.57863095 150.68549727 -35.81070698 150.66346083 -40.04296112 150.65320587 C-44.01914111 150.6432394 -47.9949899 150.61910556 -51.97102737 150.58427238 C-53.42540145 150.57392185 -54.87982143 150.56856374 -56.33423233 150.56870461 C-66.17847766 150.56576068 -74.38945441 149.93262716 -82.4367218 143.74525452 C-88.01150078 138.10265584 -89.59543753 131.03869315 -90.1945343 123.37025452 C-89.82823584 115.55588735 -87.74073606 108.64024814 -84.54219055 101.55775452 C-83.98144836 100.28158264 -83.98144836 100.28158264 -83.40937805 98.97962952 C-82.51255575 96.94114691 -81.61108321 94.90470701 -80.70625305 92.86976624 C-78.70937594 88.37786732 -76.73570612 83.87581387 -74.76094055 79.37416077 C-73.98344445 77.60202078 -73.20593778 75.82988544 -72.42842102 74.05775452 C-71.83936981 72.71511536 -71.83936981 72.71511536 -71.23841858 71.34535217 C-70.04668905 68.63050244 -68.85350375 65.91629714 -67.65986633 63.20228577 C-62.38429748 51.20424702 -57.15645709 39.18812906 -52.04219055 27.12025452 C-51.38219055 27.12025452 -50.72219055 27.12025452 -50.04219055 27.12025452 C-49.7689093 26.5363092 -49.49562805 25.95236389 -49.21406555 25.35072327 C-42.6702604 12.8956808 -28.87317459 6.24779602 -16.1007843 1.99525452 C-10.653869 0.43700544 -5.65651387 -0.02202563 0 0 Z " fill="#000000" transform="translate(614.0421905517578,47.87974548339844)"/>
<path d="M0 0 C1.80470269 0.00056518 3.60940585 0.00024548 5.41410828 -0.00088501 C10.278986 -0.00145536 15.14376373 0.0102472 20.00861835 0.02426291 C25.10549211 0.03682352 30.20236853 0.03794495 35.29925537 0.04031372 C44.93556238 0.04651289 54.57182364 0.06290243 64.20811057 0.0830127 C75.18519897 0.10542051 86.16228963 0.11637738 97.13939524 0.12640357 C119.70591118 0.14727013 142.27238661 0.18241553 164.83886719 0.22705078 C164.10070755 5.23893049 162.62139223 9.4241466 160.49511719 13.99658203 C160.16596313 14.71819016 159.83680908 15.43979828 159.49768066 16.18327332 C158.8050275 17.69834437 158.10896191 19.21185953 157.40966797 20.72387695 C156.33566802 23.04646918 155.27195435 25.37355693 154.20996094 27.70166016 C153.53476852 29.17523739 152.85900741 30.64855422 152.18261719 32.12158203 C151.70290466 33.16835869 151.70290466 33.16835869 151.21350098 34.23628235 C148.95628456 39.10963341 148.95628456 39.10963341 147.83886719 40.22705078 C145.83428164 40.32947621 143.82604324 40.36060156 141.81884766 40.36508179 C140.50945724 40.37053513 139.20006683 40.37598846 137.85099792 40.38160706 C136.3860169 40.382727 134.92103581 40.3837775 133.45605469 40.38476562 C131.92373 40.3894315 130.39140669 40.39457468 128.85908508 40.40016174 C125.5502129 40.41146484 122.24134985 40.41988855 118.9324646 40.42628098 C113.69590893 40.43694569 108.45941824 40.45718886 103.22290039 40.47940063 C88.3288065 40.54136841 73.43471525 40.59527 58.54052734 40.62841797 C50.321345 40.64679091 42.10227038 40.67576547 33.88316727 40.71642268 C29.5339616 40.73745787 25.18489153 40.75294489 20.83563232 40.75522995 C16.73815553 40.75738499 12.64096045 40.77334125 8.54356956 40.79961967 C7.0444615 40.80678319 5.54531919 40.80892802 4.04619789 40.8055172 C-5.46860404 40.78733713 -15.40698081 40.92680228 -23.16113281 47.22705078 C-24.04771747 49.81827821 -24.04771747 49.81827821 -24.16113281 52.22705078 C-19.86531116 55.63408175 -16.73983677 56.35532864 -11.30566406 56.50830078 C-10.01547363 56.54503906 -8.7252832 56.58177734 -7.39599609 56.61962891 C-5.92188266 56.65575037 -4.44776118 56.691544 -2.97363281 56.72705078 C-2.21612732 56.74695068 -1.45862183 56.76685059 -0.67816162 56.78735352 C12.14230719 57.12247803 24.96457744 57.30880564 37.78808594 57.47705078 C38.57965025 57.48752945 39.37121456 57.49800812 40.18676567 57.50880432 C48.26621549 57.61554145 56.34567645 57.71857234 64.4253397 57.80784607 C67.52146176 57.8427265 70.61753994 57.88081031 73.71361732 57.91943359 C75.15767025 57.93665313 76.60174139 57.95242389 78.04582787 57.96655273 C113.78818324 58.31786113 113.78818324 58.31786113 123.46386719 67.59814453 C126.79252329 71.54146724 127.94679803 74.80746045 127.55761719 79.92626953 C125.06225989 97.10159273 116.40425266 115.34928114 104.83886719 128.22705078 C104.34515625 128.82388672 103.85144531 129.42072266 103.34277344 130.03564453 C93.37608135 141.19535711 74.38538574 149.50863216 59.68034363 150.42357254 C55.76460913 150.51304736 51.85106998 150.54033742 47.93457031 150.54589844 C46.42867503 150.55521078 44.92278484 150.56538137 43.41690063 150.57633972 C39.33685431 150.60358397 35.25684251 150.61878554 31.1767292 150.63176775 C26.87018128 150.64751006 22.5637013 150.67429014 18.25720215 150.69979858 C10.07202914 150.74658958 1.88684261 150.78329294 -6.29839563 150.81647146 C-15.48703974 150.85425362 -24.67560649 150.90398894 -33.86418819 150.95445561 C-64.96328774 151.12403379 -96.06151403 151.25830538 -127.16113281 151.22705078 C-126.48692747 146.38198503 -124.56175866 142.27765045 -122.56347656 137.86376953 C-122.20975479 137.07178665 -121.85603302 136.27980377 -121.49159241 135.46382141 C-120.36539574 132.94522031 -119.23212725 130.42987471 -118.09863281 127.91455078 C-117.33188741 126.20317245 -116.56560608 124.49158612 -115.79980469 122.77978516 C-113.92561549 118.59311148 -112.0450793 114.40934233 -110.16113281 110.22705078 C-108.93529858 110.22485094 -108.93529858 110.22485094 -107.68470001 110.22260666 C-87.78683114 110.18553212 -67.88913251 110.12650875 -47.99140167 110.04314804 C-38.36893947 110.00336274 -28.74655899 109.97096765 -19.12402344 109.95605469 C-10.73562644 109.94303555 -2.3474093 109.91606416 6.0408864 109.87243772 C10.48120367 109.84982881 14.92129915 109.83413976 19.36167908 109.83516693 C23.54458332 109.83591388 27.72699739 109.81794924 31.90977478 109.78588295 C33.44154626 109.7773925 34.97337277 109.77562823 36.50515747 109.78124809 C49.11205954 109.8581107 49.11205954 109.8581107 59.67871094 103.48095703 C60.0409375 102.92279297 60.40316406 102.36462891 60.77636719 101.78955078 C61.15664063 101.23396484 61.53691406 100.67837891 61.92871094 100.10595703 C63.01993887 97.85325045 63.38275739 95.67948906 63.83886719 93.22705078 C63.15840836 93.21674332 62.47794952 93.20643585 61.77687073 93.19581604 C3.84764326 92.316276 3.84764326 92.316276 -23.23709106 91.78634644 C-25.23387749 91.74751431 -27.23068315 91.70965584 -29.22750854 91.67288208 C-34.65123659 91.57225708 -40.07370611 91.45094818 -45.49621582 91.29785156 C-47.32865118 91.24916792 -49.16128419 91.20757095 -50.99401855 91.171875 C-53.81875401 91.11474902 -56.64186405 91.03277357 -59.46582031 90.94580078 C-60.30791046 90.93359497 -61.15000061 90.92138916 -62.01760864 90.90881348 C-68.4891626 90.67019056 -74.78236361 89.21663595 -79.75582886 84.81604004 C-86.25785465 77.42458689 -85.92045749 68.85519335 -85.39941406 59.56201172 C-84.09442764 46.7742144 -76.01080579 28.01749598 -66.12988281 19.66455078 C-64.98340584 18.83831785 -63.82664226 18.02621161 -62.66113281 17.22705078 C-62.04310791 16.7969873 -61.42508301 16.36692383 -60.78833008 15.92382812 C-41.96882861 3.09443333 -22.25569394 -0.09833983 0 0 Z " fill="#000000" transform="translate(391.1611328125,45.77294921875)"/>
<path d="M0 0 C1.83381651 0.00028238 3.66763314 0.00012315 5.50144958 -0.0004425 C10.45944618 -0.0007285 15.41741841 0.00513632 20.37540936 0.01213145 C25.56439416 0.01839785 30.75337956 0.01897139 35.94236755 0.02015686 C45.75937933 0.0232605 55.57637992 0.03146083 65.39338678 0.04150635 C76.57355055 0.05269755 87.75371486 0.05818551 98.93388283 0.06320179 C121.92394566 0.07364426 144.91399857 0.09122494 167.90405273 0.11352539 C168.99865006 3.80992259 168.66306499 5.36768195 166.96655273 8.86352539 C166.5862793 9.66274414 166.20600586 10.46196289 165.81420898 11.28540039 C165.51385742 11.88868164 165.21350586 12.49196289 164.90405273 13.11352539 C163.91405273 13.11352539 162.92405273 13.11352539 161.90405273 13.11352539 C161.66078247 13.92164673 161.66078247 13.92164673 161.41259766 14.74609375 C159.53551838 20.70010466 157.07582776 26.13532498 154.21655273 31.67602539 C153.59296875 32.90289062 153.59296875 32.90289062 152.95678711 34.15454102 C151.94472278 36.1437709 150.92712427 38.1299408 149.90405273 40.11352539 C148.76740315 40.10799463 148.76740315 40.10799463 147.60779095 40.10235214 C129.1360434 40.01386283 110.66433839 39.94774865 92.19242382 39.9062767 C83.25938981 39.88568606 74.32649764 39.85763269 65.39355469 39.81176758 C57.60401428 39.77179233 49.81457664 39.74606717 42.0249365 39.73717141 C37.9035868 39.73197468 33.782531 39.71983423 29.66127586 39.69060516 C25.77475957 39.66326668 21.88865563 39.65511717 18.00205231 39.66109467 C16.58276179 39.6600026 15.16345613 39.65215889 13.74424934 39.63670349 C1.60326684 39.51107555 -9.18342954 41.39590948 -18.17407227 50.13305664 C-29.88344318 62.45975833 -43.53287836 83.47061403 -44.47094727 101.11352539 C-44.34719727 102.10352539 -44.22344727 103.09352539 -44.09594727 104.11352539 C-42.61094727 105.10352539 -42.61094727 105.10352539 -41.09594727 106.11352539 C-41.09594727 106.77352539 -41.09594727 107.43352539 -41.09594727 108.11352539 C-35.96379418 108.94503855 -30.93654073 109.30275418 -25.73657227 109.39477539 C-24.88285538 109.41286758 -24.02913849 109.43095978 -23.14955139 109.44960022 C-20.21509376 109.50943917 -17.28055883 109.56181507 -14.34594727 109.61352539 C-13.31545258 109.63309296 -12.28495789 109.65266052 -11.22323608 109.67282104 C31.14681558 110.47107616 73.52873941 110.72597343 115.90405273 111.11352539 C117.02905273 115.86352539 117.02905273 115.86352539 115.90405273 118.11352539 C114.91405273 118.11352539 113.92405273 118.11352539 112.90405273 118.11352539 C112.79971924 118.80212646 112.69538574 119.49072754 112.58789062 120.20019531 C111.78099709 123.63777494 110.46566045 126.53107793 108.96264648 129.72680664 C108.53194603 130.64842842 108.53194603 130.64842842 108.09254456 131.58866882 C107.18065435 133.53689867 106.2612408 135.4814664 105.34155273 137.42602539 C104.71930648 138.75196205 104.09755634 140.07813165 103.47631836 141.40454102 C101.95796238 144.643585 100.43284171 147.87939023 98.90405273 151.11352539 C75.78988025 151.16032532 52.67571563 151.19555334 29.56150532 151.21714973 C18.82825953 151.22744554 8.09504325 151.24147336 -2.63818359 151.2644043 C-11.99742189 151.28439019 -21.35663881 151.29725414 -30.71589786 151.30170238 C-35.66775429 151.30430097 -40.61954958 151.31037324 -45.57138634 151.3249855 C-50.24084314 151.33865168 -54.91021413 151.34272992 -59.57968903 151.33974075 C-61.28515656 151.3402869 -62.99062723 151.34421015 -64.69607735 151.35193634 C-94.87445626 151.48184281 -94.87445626 151.48184281 -104.75219727 142.62915039 C-109.46670283 137.31162667 -110.42445685 132.27236883 -110.34594727 125.36352539 C-110.35368164 124.69836914 -110.36141602 124.03321289 -110.36938477 123.34790039 C-110.336533 114.8064404 -108.12201679 107.43525951 -104.37719727 99.82055664 C-104.00701981 99.04799026 -103.63684235 98.27542389 -103.25544739 97.47944641 C-102.04455653 94.95721859 -100.82065013 92.4415718 -99.59594727 89.92602539 C-98.30836819 87.25965197 -97.02340758 84.59202703 -95.73860168 81.92431641 C-94.85514218 80.09058963 -93.9705171 78.25742399 -93.08476257 76.42480469 C-90.03494626 70.10460458 -87.0570175 63.75427777 -84.11547852 57.38305664 C-82.92718042 54.82271834 -81.73796535 52.26280764 -80.54858398 49.70297241 C-79.79747705 48.07942744 -79.0507795 46.45383416 -78.30883789 44.82608032 C-70.29263916 27.25756419 -59.78600751 12.72130791 -41.13745117 5.33813477 C-39.07290858 4.59381929 -37.00044398 3.90161363 -34.90844727 3.23852539 C-34.2677832 3.03533691 -33.62711914 2.83214844 -32.96704102 2.62280273 C-22.21713775 -0.54457948 -11.08824664 -0.02393602 0 0 Z " fill="#000000" transform="translate(137.095947265625,43.886474609375)"/>
<path d="M0 0 C0.83418961 -0.00953201 1.66837921 -0.01906403 2.52784729 -0.02888489 C3.87325844 -0.02751778 3.87325844 -0.02751778 5.24584961 -0.02612305 C6.16909531 -0.03040817 7.092341 -0.0346933 8.04356384 -0.03910828 C9.99452901 -0.04485014 11.94551558 -0.0453529 13.89648438 -0.04101562 C16.89026079 -0.03785018 19.88305439 -0.0613354 22.87670898 -0.08666992 C24.77058794 -0.08894228 26.66446957 -0.0896467 28.55834961 -0.08862305 C29.9067971 -0.10243767 29.9067971 -0.10243767 31.28248596 -0.11653137 C32.52904213 -0.10718819 32.52904213 -0.10718819 33.80078125 -0.09765625 C34.5334169 -0.09828568 35.26605255 -0.0989151 36.02088928 -0.0995636 C37.83569336 0.2746582 37.83569336 0.2746582 39.83569336 3.2746582 C40.16296609 8.62011275 40.16296609 8.62011275 38.83569336 11.2746582 C34.21569336 11.2746582 29.59569336 11.2746582 24.83569336 11.2746582 C24.83569336 10.6146582 24.83569336 9.9546582 24.83569336 9.2746582 C21.10518107 9.29751728 17.37771148 9.37490493 13.64819336 9.4621582 C12.06554687 9.47085938 12.06554687 9.47085938 10.45092773 9.47973633 C4.18796327 9.63385781 4.18796327 9.63385781 -1.27758789 12.45043945 C-3.57084201 15.61412931 -3.57084201 15.61412931 -5.16430664 21.2746582 C1.27069336 20.7796582 1.27069336 20.7796582 7.83569336 20.2746582 C7.80475586 18.5730957 7.80475586 18.5730957 7.77319336 16.8371582 C7.83569336 13.2746582 7.83569336 13.2746582 8.83569336 12.2746582 C10.83534318 12.18707817 12.83805446 12.16769244 14.83959961 12.17700195 C16.05454102 12.18022461 17.26948242 12.18344727 18.52124023 12.18676758 C19.80063477 12.19514648 21.0800293 12.20352539 22.39819336 12.2121582 C23.68145508 12.21666992 24.9647168 12.22118164 26.28686523 12.22583008 C29.46985358 12.23766275 32.65275098 12.25414752 35.83569336 12.2746582 C36.08907322 17.10655327 35.95494871 20.03722743 33.14819336 24.0246582 C32.64932617 24.76200195 32.15045898 25.4993457 31.63647461 26.2590332 C29.12546526 29.06962067 26.74601643 30.99611072 22.90934753 31.55554199 C20.58666999 31.67103615 18.2822885 31.69042928 15.95678711 31.6730957 C14.68316063 31.67740097 14.68316063 31.67740097 13.38380432 31.68179321 C11.5944044 31.68382904 9.80498199 31.6783329 8.015625 31.66577148 C5.27870967 31.64969061 2.54326651 31.66564629 -0.19360352 31.68481445 C-1.93514323 31.68283233 -3.67668202 31.67898928 -5.41821289 31.6730957 C-6.64333336 31.68220474 -6.64333336 31.68220474 -7.89320374 31.6914978 C-11.19956785 31.65059271 -13.71635475 31.50656885 -16.6796875 29.97241211 C-18.71222858 27.64807554 -18.71443836 25.59350622 -18.54321289 22.58325195 C-17.18523659 14.30939638 -13.19419719 7.98276805 -7.16430664 2.2746582 C-4.09894435 0.23108334 -3.45757334 0.02172036 0 0 Z " fill="#000000" transform="translate(704.164306640625,222.725341796875)"/>
<path d="M0 0 C0.86792679 -0.00960754 1.73585358 -0.01921509 2.63008118 -0.02911377 C3.57481796 -0.03336365 4.51955475 -0.03761353 5.49291992 -0.04199219 C6.45864426 -0.04769226 7.42436859 -0.05339233 8.4193573 -0.05926514 C10.46803689 -0.06873192 12.51673183 -0.07525575 14.56542969 -0.07910156 C17.69973409 -0.08879404 20.83337935 -0.11979631 23.9675293 -0.15136719 C25.9551556 -0.15789822 27.94278661 -0.1631483 29.93041992 -0.16699219 C30.86908401 -0.17933899 31.80774811 -0.19168579 32.77485657 -0.20440674 C39.24009281 -0.18229233 39.24009281 -0.18229233 42.49169922 1.48242188 C43.91088867 3.16113281 43.91088867 3.16113281 44.59838867 6.34863281 C43.64767467 11.62077411 40.8888162 14.66873391 36.91088867 18.16113281 C35.92088867 18.49113281 34.93088867 18.82113281 33.91088867 19.16113281 C33.92249023 19.85980469 33.9340918 20.55847656 33.94604492 21.27832031 C33.95506836 22.18839844 33.9640918 23.09847656 33.97338867 24.03613281 C33.98499023 24.94105469 33.9965918 25.84597656 34.00854492 26.77832031 C33.91088867 29.16113281 33.91088867 29.16113281 32.91088867 31.16113281 C28.62088867 31.16113281 24.33088867 31.16113281 19.91088867 31.16113281 C19.91088867 28.85113281 19.91088867 26.54113281 19.91088867 24.16113281 C12.65088867 24.49113281 5.39088867 24.82113281 -2.08911133 25.16113281 C-3.07911133 27.14113281 -4.06911133 29.12113281 -5.08911133 31.16113281 C-9.37911133 31.16113281 -13.66911133 31.16113281 -18.08911133 31.16113281 C-17.1708458 27.4880707 -15.98423051 24.54016266 -14.40161133 21.11816406 C-13.86793945 19.96251953 -13.33426758 18.806875 -12.78442383 17.61621094 C-12.36725098 16.72011108 -12.36725098 16.72011108 -11.94165039 15.8059082 C-11.08799306 13.97122943 -10.24051004 12.13379158 -9.39379883 10.29589844 C-4.64237113 0.04130749 -4.64237113 0.04130749 0 0 Z M4.91088867 10.16113281 C3.92088867 11.64613281 3.92088867 11.64613281 2.91088867 13.16113281 C11.16088867 13.16113281 19.41088867 13.16113281 27.91088867 13.16113281 C28.24088867 12.50113281 28.57088867 11.84113281 28.91088867 11.16113281 C24.43665201 9.66972059 20.03516399 9.93611229 15.34838867 9.91113281 C13.89142578 9.88019531 13.89142578 9.88019531 12.4050293 9.84863281 C11.01380859 9.84089844 11.01380859 9.84089844 9.59448242 9.83300781 C8.31915649 9.81898926 8.31915649 9.81898926 7.01806641 9.8046875 C6.32269775 9.92231445 5.6273291 10.03994141 4.91088867 10.16113281 Z " fill="#000000" transform="translate(447.089111328125,220.8388671875)"/>
<path d="M0 0 C15.04529617 -1.21851667 15.04529617 -1.21851667 19.40625 1.5 C21.12602147 3.57670518 22.53878698 5.73550234 24 8 C25.44494745 9.53299084 26.92450785 11.03412525 28.4375 12.5 C29.45650391 13.50546875 29.45650391 13.50546875 30.49609375 14.53125 C30.99238281 15.0159375 31.48867188 15.500625 32 16 C33.9944459 13.00833114 35.21971578 10.20189821 36.5625 6.875 C38.89336016 1.10663984 38.89336016 1.10663984 40 0 C42.01964199 -0.07244053 44.04167124 -0.08377188 46.0625 -0.0625 C47.71958984 -0.04896484 47.71958984 -0.04896484 49.41015625 -0.03515625 C50.26480469 -0.02355469 51.11945312 -0.01195312 52 0 C53.35470569 4.06411708 52.17822451 5.53208644 50.47265625 9.41796875 C50.20488876 10.03521317 49.93712128 10.65245758 49.66123962 11.28840637 C48.80397518 13.25883764 47.93346391 15.22309119 47.0625 17.1875 C46.47893573 18.52240124 45.8962425 19.85768363 45.31445312 21.19335938 C43.88638262 24.46672246 42.44637429 27.73467652 41 31 C27.22888749 32.92960499 27.22888749 32.92960499 21.91894531 29.75634766 C17.71203297 26.33307585 14.2166643 22.35228666 11 18 C11 17.34 11 16.68 11 16 C7.68655145 16.735859 7.68655145 16.735859 6.17578125 20.16015625 C5.54446852 21.45600869 4.92374601 22.75706229 4.3125 24.0625 C3.83200195 25.05733398 3.83200195 25.05733398 3.34179688 26.07226562 C2.5521402 27.71050858 1.77487638 29.35471454 1 31 C-3.29 30.67 -7.58 30.34 -12 30 C-11.16666756 25.83333781 -10.19946861 22.86087793 -8.49609375 19.04296875 C-8.00302734 17.93115234 -7.50996094 16.81933594 -7.00195312 15.67382812 C-6.48568359 14.52333984 -5.96941406 13.37285156 -5.4375 12.1875 C-4.91736328 11.01767578 -4.39722656 9.84785156 -3.86132812 8.64257812 C-2.57872888 5.75967157 -1.29147717 2.87893769 0 0 Z " fill="#000000" transform="translate(634,223)"/>
<path d="M0 0 C0.78153946 -0.00902847 1.56307892 -0.01805695 2.36830139 -0.02735901 C4.01820049 -0.04183966 5.66815674 -0.05074282 7.31811523 -0.05444336 C9.83611004 -0.06635164 12.35166186 -0.11556268 14.86914062 -0.16601562 C16.4752485 -0.1754794 18.08137137 -0.18271466 19.6875 -0.1875 C20.43660141 -0.20703232 21.18570282 -0.22656464 21.95750427 -0.24668884 C25.97706534 -0.21215707 27.71895361 0.21759965 30.89355469 2.76611328 C33.88163634 6.62602022 33.31098863 8.64127165 32.91015625 13.37109375 C28.62015625 13.37109375 24.33015625 13.37109375 19.91015625 13.37109375 C19.41515625 11.39109375 19.41515625 11.39109375 18.91015625 9.37109375 C15.15881071 9.39390236 11.41050983 9.47121992 7.66015625 9.55859375 C6.06494141 9.56729492 6.06494141 9.56729492 4.4375 9.57617188 C-1.65085892 9.61173809 -1.65085892 9.61173809 -6.69921875 12.609375 C-7.98293486 15.15877749 -9.04828487 17.71623258 -10.08984375 20.37109375 C-6.33990896 20.42921148 -2.59009023 20.46472968 1.16015625 20.49609375 C2.22363281 20.51285156 3.28710938 20.52960938 4.3828125 20.546875 C5.92001953 20.55654297 5.92001953 20.55654297 7.48828125 20.56640625 C8.90222168 20.5821167 8.90222168 20.5821167 10.34472656 20.59814453 C13.04151633 20.35946786 14.55449396 19.63534857 16.91015625 18.37109375 C20.14453125 18.17578125 20.14453125 18.17578125 23.66015625 18.24609375 C24.830625 18.26414063 26.00109375 18.2821875 27.20703125 18.30078125 C28.0990625 18.32398438 28.99109375 18.3471875 29.91015625 18.37109375 C29.91015625 22.49219167 28.77622536 25.1610891 26.1171875 28.20703125 C19.72231514 33.3851233 11.17497572 32.25885127 3.3815918 32.06396484 C0.58742906 31.99584442 -2.2031256 31.9819529 -4.99804688 31.9765625 C-6.77477601 31.95757503 -8.55147584 31.93554745 -10.328125 31.91015625 C-11.16249588 31.90368073 -11.99686676 31.8972052 -12.85652161 31.89053345 C-18.65627351 31.7230999 -18.65627351 31.7230999 -20.80558777 29.9781189 C-23.01021941 27.21940214 -22.55137752 24.46397188 -22.4375 21.0625 C-21.4889728 13.71940742 -17.55267755 7.30130126 -12.08984375 2.37109375 C-8.32585998 -0.1466945 -4.37197469 0.03121395 0 0 Z " fill="#000000" transform="translate(571.08984375,221.62890625)"/>
<path d="M0 0 C1.74216797 0.15275391 1.74216797 0.15275391 3.51953125 0.30859375 C4.39996094 0.39238281 5.28039062 0.47617188 6.1875 0.5625 C7.47698279 4.33187464 8.758477 8.10386157 10.03271484 11.87841797 C10.4670637 13.16138279 10.90356654 14.44362052 11.34228516 15.72509766 C11.97347355 17.56999978 12.59621559 19.41778477 13.21875 21.265625 C13.78432617 22.93093262 13.78432617 22.93093262 14.36132812 24.62988281 C15.1875 27.5625 15.1875 27.5625 15.1875 31.5625 C10.8975 31.5625 6.6075 31.5625 2.1875 31.5625 C1.5275 29.9125 0.8675 28.2625 0.1875 26.5625 C-4.25096476 26.61420854 -8.68745857 26.70924916 -13.125 26.8125 C-14.38763672 26.82667969 -15.65027344 26.84085938 -16.95117188 26.85546875 C-18.76391602 26.90380859 -18.76391602 26.90380859 -20.61328125 26.953125 C-22.28644409 26.9845459 -22.28644409 26.9845459 -23.9934082 27.01660156 C-26.9320779 27.27856199 -26.9320779 27.27856199 -28.49023438 29.5625 C-28.92658203 30.2225 -29.36292969 30.8825 -29.8125 31.5625 C-33.16796875 32.171875 -33.16796875 32.171875 -37 32.3125 C-38.27230469 32.36921875 -39.54460937 32.4259375 -40.85546875 32.484375 C-41.83128906 32.51015625 -42.80710937 32.5359375 -43.8125 32.5625 C-44.1425 31.2425 -44.4725 29.9225 -44.8125 28.5625 C-37.37693777 22.1472923 -29.92284466 15.77493267 -22.28125 9.60546875 C-19.30202796 7.14006823 -16.46511969 4.54032315 -13.6640625 1.875 C-9.50340399 -1.07432755 -4.86935704 -0.44266882 0 0 Z M-7.8125 10.5625 C-9.39090572 12.11955194 -9.39090572 12.11955194 -10.9375 14.0625 C-11.47632813 14.7121875 -12.01515625 15.361875 -12.5703125 16.03125 C-12.98023438 16.5365625 -13.39015625 17.041875 -13.8125 17.5625 C-10.8425 17.5625 -7.8725 17.5625 -4.8125 17.5625 C-5.1425 15.2525 -5.4725 12.9425 -5.8125 10.5625 C-6.4725 10.5625 -7.1325 10.5625 -7.8125 10.5625 Z " fill="#000000" transform="translate(529.8125,220.4375)"/>
<path d="M0 0 C1.65322266 0.01740234 1.65322266 0.01740234 3.33984375 0.03515625 C4.44457031 0.04417969 5.54929687 0.05320313 6.6875 0.0625 C7.54214844 0.07410156 8.39679687 0.08570313 9.27734375 0.09765625 C8.82665602 7.02453076 6.08269516 12.68705625 3.15234375 18.91015625 C2.69085937 19.95880859 2.229375 21.00746094 1.75390625 22.08789062 C-1.70920374 29.46602743 -1.70920374 29.46602743 -4.5480957 31.23535156 C-7.85252366 32.22003723 -11.29551307 32.3053619 -14.72265625 32.09765625 C-16.13091766 27.55305091 -15.23932516 25.18898767 -13.23046875 20.95703125 C-12.69035156 19.80460937 -12.15023437 18.6521875 -11.59375 17.46484375 C-11.01181971 16.25906585 -10.42978726 15.05333726 -9.84765625 13.84765625 C-9.2722345 12.6268684 -8.69800245 11.40551902 -8.125 10.18359375 C-3.36490854 0.12069256 -3.36490854 0.12069256 0 0 Z " fill="#000000" transform="translate(616.72265625,221.90234375)"/>
</svg>
